<?xml version="1.0" encoding="UTF-8"?>
<svg version="1.1" xmlns="http://www.w3.org/2000/svg" width="1024" height="1024">
<path d="M0 0 C337.92 0 675.84 0 1024 0 C1024 337.92 1024 675.84 1024 1024 C686.08 1024 348.16 1024 0 1024 C0 686.08 0 348.16 0 0 Z " fill="#05042B" transform="translate(0,0)"/>
<path d="M0 0 C4.49028476 3.51941238 4.81706683 8.13822405 5.57421875 13.484375 C5.87563146 15.97310377 6.169118 18.46279842 6.45703125 20.953125 C9.02473064 43.09721839 16.00909144 64.70761232 33 80 C36.50409332 82.70344012 40.10168486 84.91341981 44 87 C44.80308594 87.45890625 45.60617187 87.9178125 46.43359375 88.390625 C67.09860337 99.09387491 92.26296221 97.77886436 113.96777344 91.35717773 C128.13776842 86.8460695 141.49559446 77.84121471 148.69921875 64.5703125 C149.34310547 63.29800781 149.34310547 63.29800781 150 62 C150.43957031 61.19304687 150.87914062 60.38609375 151.33203125 59.5546875 C158.10207309 46.17823022 159.54207718 31.76822631 159.40917969 16.97192383 C159.46996725 9.59170604 159.46996725 9.59170604 162.31640625 6.4140625 C170.24417555 2.23669352 176.99915018 0.79845628 186 2 C189.58115502 3.31720644 192.77800359 4.96352372 196 7 C196 7.66 196 8.32 196 9 C196.66 9 197.32 9 198 9 C198.0093457 9.63276855 198.01869141 10.26553711 198.02832031 10.91748047 C198.47593952 35.18107463 201.11662876 57.77336421 218.1640625 76.359375 C227.93529302 85.52656581 239.3399254 90.31762253 252 94 C252.59449951 94.18030762 253.18899902 94.36061523 253.80151367 94.54638672 C274.46106409 98.80906797 300.3422924 95.16339535 318.07421875 84.078125 C320.81468591 82.14895576 323.42176116 80.14010675 326 78 C326.96679688 77.20335937 326.96679688 77.20335937 327.953125 76.390625 C341.11214504 64.41710226 345.22116133 47.77829104 348 31 C348.33 31 348.66 31 349 31 C349.9666201 36.04602445 350.31445405 41.01134387 350.55419922 46.13085938 C350.59630964 47.00825523 350.63842007 47.88565109 350.68180656 48.7896347 C351.09942755 58.16232027 351.14536837 67.52590403 351.1328125 76.90625 C351.13348916 78.73221855 351.13446216 80.55818702 351.13571167 82.38415527 C351.13716867 86.16887285 351.13509751 89.9535665 351.13037109 93.73828125 C351.124642 98.55685555 351.12798557 103.3753745 351.13394356 108.19394684 C351.13757571 111.94828704 351.13639899 115.70261434 351.13381577 119.45695496 C351.13315553 121.23333239 351.13394278 123.00971104 351.13629532 124.78608704 C351.14119502 129.51763383 351.10327032 134.24476217 351.01285362 138.97543144 C351.00092682 140.85401639 351.07193132 142.73262846 351.14985657 144.6096344 C351.16939423 147.73227705 351.07442174 150.06810779 350 153 C346.81296303 156.08665669 343.19370111 157.6567256 339.15234375 159.40234375 C338.03428848 159.93162979 336.91623322 160.46091583 335.76429749 161.00624084 C332.77745126 162.41124206 329.77605904 163.77466966 326.76147461 165.11883545 C322.61990837 166.97771739 318.51405101 168.91488068 314.40022278 170.83410645 C312.0643685 171.92309914 309.7262055 173.0071531 307.38578796 174.08630371 C295.63421663 179.5376672 284.30049594 185.67660464 273 192 C271.68446172 192.7309569 270.36880534 193.46170133 269.05297852 194.19213867 C266.1316327 195.82310097 263.21955035 197.4687322 260.3125 199.125 C259.36568359 199.66125 258.41886719 200.1975 257.44335938 200.75 C252.40467472 203.5682529 252.40467472 203.5682529 247.58276367 206.72998047 C244.21478247 208.38611415 242.57650716 207.99148968 239 207 C236.45239258 205.95947266 236.45239258 205.95947266 233.89453125 204.6640625 C232.92459229 204.18219482 231.95465332 203.70032715 230.95532227 203.20385742 C229.91819092 202.68283447 228.88105957 202.16181152 227.8125 201.625 C215.42165568 195.53712931 202.8025897 190.24007619 189.96337891 185.17822266 C187.42581147 184.16930023 184.90387961 183.13267953 182.38671875 182.07421875 C169.17190222 176.59550549 155.39422996 172.92360482 141.64624023 169.05078125 C138.15910954 168.04585252 134.69660214 166.98176203 131.234375 165.89453125 C125.558248 164.13249535 119.86281201 162.66472078 114.0625 161.375 C113.11737549 161.16335205 112.17225098 160.9517041 111.19848633 160.73364258 C100.94205611 158.4829138 90.54860723 156.29675952 80 157 C77.61995935 158.93501064 77.61995935 158.93501064 77.8125 162.4375 C77.83968083 165.96225747 77.83968083 165.96225747 79 169 C79.62656494 169.11174561 80.25312988 169.22349121 80.89868164 169.33862305 C115.1028175 175.4925829 148.59924426 183.10131499 181.1875 195.4375 C182.06011475 195.7672583 182.93272949 196.0970166 183.83178711 196.43676758 C189.736911 198.736911 189.736911 198.736911 192 201 C183.40109529 200.34945861 174.97474693 198.84712507 166.5 197.3125 C165.00129028 197.04396362 163.50250946 196.77582374 162.00366211 196.50805664 C158.89134076 195.95180118 155.77933029 195.39384772 152.66748047 194.83496094 C148.16683271 194.02810312 143.66393021 193.23451099 139.16015625 192.4453125 C137.72062095 192.19287565 136.28108644 191.94043427 134.84155273 191.68798828 C133.7818074 191.50215179 133.7818074 191.50215179 132.70065308 191.31256104 C123.02286591 189.61494597 113.35265008 187.89067336 103.69970703 186.05566406 C93.10966142 184.04892888 82.50000698 182.19578939 71.85159302 180.52786255 C70.43800907 180.30553799 69.02495128 180.07983449 67.61251831 179.85031128 C51.80278462 176.5791382 51.80278462 176.5791382 36.76000977 179.86865234 C32.77699274 183.57006459 32.31807601 188.39306308 31.4453125 193.55078125 C31.25403778 194.56472458 31.06276306 195.57866791 30.86569214 196.62333679 C30.26253722 199.84931586 29.69340523 203.08023625 29.125 206.3125 C28.72098214 208.50627163 28.31475652 210.6996379 27.90625 212.89257812 C26.91187392 218.257286 25.94532603 223.62644438 25 229 C13.08237116 227.54660922 2.15633819 218.62094174 -5.32177734 209.36376953 C-9.52571362 203.8484857 -13.37475339 198.09845929 -17 192.1875 C-18.63712036 188.96479526 -18.63712036 188.96479526 -21 188 C-25.65275976 187.6947378 -25.65275976 187.6947378 -30 189 C-30.39485495 195.33178124 -29.46868886 199.31169483 -26.5 204.875 C-25.96185669 205.91599854 -25.96185669 205.91599854 -25.4128418 206.97802734 C-22.25882451 212.89275521 -18.43995987 217.98399743 -14 223 C-13.21753906 223.97839844 -12.43507813 224.95679688 -11.62890625 225.96484375 C-2.25181026 237.21807026 12.72337953 245.30661383 27 248 C29.87156025 248.24558662 32.72087441 248.2542451 35.6015625 248.23828125 C37.24349775 248.25371107 38.88542498 248.27001543 40.52734375 248.28710938 C43.06772895 248.30345332 45.60751648 248.31254906 48.14794922 248.30541992 C60.98265295 248.29165684 74.00519883 249.07693071 84.54296875 257.48046875 C87.55215139 260.61873161 89.8321922 264.2482831 92 268 C92.37769531 268.59425781 92.75539063 269.18851563 93.14453125 269.80078125 C95.78689065 276.59369607 94.89068288 286.7705483 92.375 293.5 C90.15594716 298.13983776 87.35092341 302.11418741 84 306 C83.20722656 306.98613281 83.20722656 306.98613281 82.3984375 307.9921875 C73.13379518 318.48123189 57.0787901 324.49911441 43.5 326.6875 C42.72100342 326.81342529 41.94200684 326.93935059 41.1394043 327.0690918 C10.53735426 331.64993987 -20.53108635 322.61187124 -45.22119141 304.38134766 C-50.48893048 300.29064388 -55.30189368 295.72482858 -60 291 C-60.74894531 290.25105469 -61.49789062 289.50210937 -62.26953125 288.73046875 C-70.60309132 279.87092461 -76.63273683 268.96966136 -82.39453125 258.328125 C-84.11530716 255.83279058 -85.17830547 255.00052117 -88 254 C-90.54258463 253.49985047 -90.54258463 253.49985047 -93 254 C-95.04826062 255.47959573 -95.04826062 255.47959573 -96 258 C-94.42508412 279.96736119 -74.63199804 300.24795541 -59 314 C-54.56354291 317.69092663 -49.88367888 320.93257632 -45 324 C-44.40171387 324.37817871 -43.80342773 324.75635742 -43.18701172 325.14599609 C-27.7934349 334.7044185 -10.59227999 341.70700335 7 346 C6.64367433 352.26641699 5.97580986 358.40141656 4.85498047 364.57397461 C1.6771422 378.96449019 1.6771422 378.96449019 4.52734375 392.69921875 C10.65626607 398.40211803 19.94842478 399.21080197 27.875 400.875 C35.63116055 402.54550983 43.32516625 404.2595807 50.9375 406.5 C61.83986373 409.67159672 72.96330587 411.84536414 84.0703125 414.16894531 C91.78166337 415.79185007 99.4739959 417.50447463 107.16949463 419.20062256 C114.76680832 420.87432329 122.36750874 422.49599858 130 424 C135.73454573 425.1425057 141.46650985 426.29763004 147.19726562 427.45898438 C148.99274396 427.82174696 150.78864959 428.18240067 152.58496094 428.54101562 C155.20098384 429.06365006 157.81543697 429.59358044 160.4296875 430.125 C161.23074921 430.28339355 162.03181091 430.44178711 162.85714722 430.60498047 C168.7891183 431.82240103 172.40389703 432.68129933 175.8125 437.75 C182.51257498 446.99610348 191.04795 451.75475611 202.2734375 453.68359375 C216.23154881 455.30337458 230.23661898 453.10224755 242 445 C242.92734458 443.69827137 243.85002167 442.39321235 244.76953125 441.0859375 C250.1049376 434.74964238 258.65386457 433.96433599 266.375 432.3125 C268.711837 431.7850703 271.04656904 431.24901622 273.38116455 430.71176147 C274.93642605 430.35396291 276.49238255 429.99917226 278.04901123 429.64736938 C285.5037477 427.94220642 292.80395721 425.8014162 300.11602783 423.57162476 C302.84184594 422.74457161 305.57683238 421.9500246 308.3125 421.15625 C309.25464355 420.88176025 310.19678711 420.60727051 311.16748047 420.32446289 C313.13001377 419.75322733 315.0925812 419.18210899 317.05517578 418.61108398 C321.78773919 417.23291166 326.51842158 415.8494693 331.2421875 414.44140625 C332.03109375 414.20679688 332.82 413.9721875 333.6328125 413.73046875 C335.08923373 413.29658716 336.54500434 412.8605134 338 412.421875 C342.77827381 411 342.77827381 411 345 411 C343.93589593 423.76924879 341.36253976 438.70728721 331.375 447.6875 C326.91874137 451.23367764 322.16205518 451.32499805 316.640625 451.30078125 C313.85402224 450.98337236 312.04856613 450.26538978 309.5625 449 C304.38239748 446.44655724 299.68635373 446.06491072 294 447 C284.43462927 450.33364059 279.9605721 460.0481261 275.625 468.5 C269.57175369 479.93241173 262.28813343 486.90395552 250 491 C234.89902865 492.52096114 225.00142366 486.35334823 213 478 C200.63014853 469.62650931 191.59950733 464.06429471 176 466 C168.25378203 468.54875559 162.70318022 473.8464683 156.87109375 479.34765625 C141.08332897 493.93254371 123.34251067 503.20739745 101.3515625 502.4140625 C90.38327122 501.63236895 79.8764871 497.39651455 71 491 C70.17113281 490.40316406 69.34226562 489.80632812 68.48828125 489.19140625 C57.29416725 480.67153694 49.91659083 470.18272321 42.14453125 458.65234375 C31.47804537 442.44491352 31.47804537 442.44491352 15 433 C-0.93125681 430.45777817 -15.20947008 442.13314967 -27.70703125 450.47265625 C-40.88383673 459.21044785 -52.90629018 464.35403809 -69 463 C-77.12694806 460.94348571 -83.68575018 455.83126792 -87.984375 448.71484375 C-92.54870602 440.17699613 -94.86699359 432.77174472 -95.4375 423.125 C-95.93857708 415.06457047 -96.83220003 406.80498821 -103 401 C-106.8334669 398.51952142 -110.49747913 398.78093489 -114.875 399.328125 C-123.04320193 401.08428841 -130.86503766 404.40894804 -138.64453125 407.40234375 C-156.33991334 414.05580741 -176.03578904 417.79897868 -194 410 C-200.59689929 406.55252402 -206.61235148 401.77529704 -210 395 C-210.45111792 391.01512504 -210.50773603 388.7898116 -208.3125 385.375 C-204.64783029 382.18787932 -199.8915838 380.93258219 -195.3984375 379.296875 C-185.02993634 375.34015961 -176.50346626 368.97224292 -168 362 C-167.12214844 361.28972656 -166.24429688 360.57945312 -165.33984375 359.84765625 C-154.03532838 350.22717328 -145.50724335 337.70585068 -138 325 C-137.62633301 324.36787598 -137.25266602 323.73575195 -136.86767578 323.08447266 C-128.11787512 308.02138299 -122.55881181 291.79399597 -117.6875 275.125 C-117.45716064 274.34286133 -117.22682129 273.56072266 -116.98950195 272.75488281 C-112.94418243 258.33127749 -111.12523921 243.46413041 -109.375 228.625 C-109.2653894 227.70912109 -109.15577881 226.79324219 -109.04284668 225.84960938 C-107.38015051 211.85052466 -106.21460915 197.96577619 -106.12597656 183.85546875 C-106.01730256 181.39219125 -105.79086494 178.99800207 -105.52026367 176.54907227 C-104.84804033 170.05176326 -104.70184535 163.55407765 -104.53515625 157.02734375 C-104.49767494 155.67288095 -104.45977725 154.31842962 -104.42149353 152.96398926 C-104.34090679 150.10142936 -104.26197111 147.23883136 -104.18432617 144.37619019 C-103.9809501 136.91708202 -103.7597842 129.4584949 -103.53515625 122 C-103.51294636 121.26229307 -103.49073647 120.52458614 -103.46785355 119.76452446 C-103.08060155 106.98401244 -102.61081388 94.20941707 -102 81.4375 C-101.96415802 80.64552216 -101.92831604 79.85354431 -101.89138794 79.03756714 C-101.72490514 75.40404284 -101.53098843 71.77773695 -101.26391602 68.15014648 C-101.05009165 65.23914551 -100.99166126 62.36399 -100.99975586 59.44555664 C-100.87775473 53.47843221 -100.76249328 48.70654853 -96.23876953 44.32641602 C-92.5685561 41.91426236 -88.60083389 40.25254627 -84.5625 38.5625 C-83.12597991 37.9025982 -81.69254494 37.23594085 -80.26220703 36.56274414 C-77.44826619 35.24629638 -74.62357669 33.96136553 -71.78271484 32.70410156 C-67.19559912 30.66094202 -62.78192316 28.34118423 -58.375 25.9375 C-56.92326647 25.16664458 -55.47008839 24.39850472 -54.015625 23.6328125 C-53.24541016 23.22708008 -52.47519531 22.82134766 -51.68164062 22.40332031 C-48.41315665 20.69290099 -45.13698382 18.99752972 -41.859375 17.3046875 C-41.22436066 16.97668655 -40.58934631 16.64868561 -39.93508911 16.31074524 C-36.78633266 14.68496481 -33.63664909 13.0610072 -30.48583984 11.43920898 C-29.31746582 10.83665283 -28.1490918 10.23409668 -26.9453125 9.61328125 C-25.79450195 9.02369629 -24.64369141 8.43411133 -23.45800781 7.82666016 C-21.08888429 6.5751929 -18.77902316 5.30453509 -16.47167969 3.95068359 C-15.34407227 3.3005127 -14.21646484 2.6503418 -13.0546875 1.98046875 C-12.05679199 1.38516357 -11.05889648 0.7898584 -10.03076172 0.17651367 C-6.23531851 -1.29684228 -3.91711707 -0.95892947 0 0 Z " fill="#FCFCFC" transform="translate(383,385)"/>
<path d="M0 0 C4.09291857 0.85269137 5.31218676 2.43451998 8 5.625 C9.39615655 8.4166033 10.41362354 11.30474483 11.4375 14.25 C15.95666154 26.46030909 21.84543938 36.42830242 30 46.625 C30.63808594 47.43066406 31.27617187 48.23632812 31.93359375 49.06640625 C44.06174292 63.56471347 61.0040722 71.50354433 78.10424805 78.54248047 C84.35156787 81.18018419 89.26102679 83.71892619 94 88.625 C94.5 91.9375 94.5 91.9375 94 94.625 C93.67 94.955 93.34 95.285 93 95.625 C92.77081758 99.64157143 92.77081758 99.64157143 93 103.625 C95.58844848 106.21344848 97.39883667 105.86377442 100.9296875 105.890625 C103.4033203 105.57325324 104.91686375 105.00367316 107 103.625 C110.22442474 98.73860325 111.91780142 93.43774233 111 87.625 C108.62030515 80.56600132 105.17224396 76.32483497 99.0859375 72.09765625 C97.16582803 70.74207335 95.60316411 69.33538209 94 67.625 C105.46551011 62.58888353 116.86497186 58.69274519 129 55.625 C129.91072266 55.38418701 130.82144531 55.14337402 131.75976562 54.89526367 C152.68747462 49.45577472 173.47949786 48.24961472 195 48.3125 C195.98836853 48.31504791 196.97673706 48.31759583 197.99505615 48.32022095 C216.79325418 48.4035958 235.52268705 48.90128536 253.78515625 53.796875 C256.73465965 54.55664987 259.6934608 55.18497453 262.67480469 55.80419922 C279.86187 59.49638525 296.58022557 66.19659334 312.02099609 74.55517578 C314.17755272 75.72098273 316.34846546 76.85755766 318.51953125 77.99609375 C328.1015281 83.09211071 336.66912147 88.66406569 345 95.625 C345.58265625 96.10227539 346.1653125 96.57955078 346.765625 97.07128906 C354.48672368 103.402425 361.64398242 109.88369654 368 117.625 C368.78632812 118.57503906 369.57265625 119.52507812 370.3828125 120.50390625 C375.42345174 126.81655633 379.8809685 133.37596129 384.125 140.25 C384.61081543 141.03246094 385.09663086 141.81492187 385.59716797 142.62109375 C386.04205566 143.35714844 386.48694336 144.09320313 386.9453125 144.8515625 C387.34250488 145.50721191 387.73969727 146.16286133 388.14892578 146.83837891 C389 148.625 389 148.625 389 151.625 C388.18362061 151.62864563 387.36724121 151.63229126 386.52612305 151.63604736 C378.76072595 151.67421352 370.99579358 151.73138328 363.23069763 151.80890274 C359.24037238 151.84809495 355.25025848 151.88041951 351.25976562 151.89599609 C347.39503299 151.91135207 343.5308826 151.94612163 339.66641235 151.99330902 C338.20599484 152.00793079 336.74549412 152.01602971 335.28500366 152.01688385 C324.60804472 152.02938569 315.26968259 153.63404528 305 156.625 C303.86578613 156.94615784 302.73157227 157.26731567 301.56298828 157.59820557 C289.25502187 161.19064159 280.00396022 167.87693256 273.0625 178.625 C272.711875 179.285 272.36125 179.945 272 180.625 C268.54787576 180.05165769 265.86375049 179.12497551 262.75 177.5625 C252.39619153 173.34370938 240.52888629 174.61219432 230.41796875 178.84765625 C227.69772211 179.72217819 226.58385432 179.81335494 224 178.625 C222.54296875 176.98828125 222.54296875 176.98828125 221.1875 174.9375 C212.07530565 162.2527828 197.93853899 157.29034511 183 154.625 C179.07041205 153.99526281 175.13429413 153.44770917 171.1875 152.9375 C169.80353027 152.75828003 169.80353027 152.75828003 168.39160156 152.57543945 C150.7610563 150.48872511 132.98801801 150.38656665 115.25732422 150.32983398 C112.75238411 150.31827773 110.24746932 150.29776913 107.74267578 150.26831055 C89.08954635 150.05028063 71.44872674 150.65748251 54.125 158.3125 C53.25536621 158.68133301 52.38573242 159.05016602 51.48974609 159.43017578 C35.84817454 166.15781851 20.443167 173.45721726 5 180.625 C0.27316269 182.81757338 -4.45633332 185.00427976 -9.1875 187.1875 C-10.17218262 187.64624512 -11.15686523 188.10499023 -12.17138672 188.57763672 C-13.05713379 188.98643066 -13.94288086 189.39522461 -14.85546875 189.81640625 C-15.61496826 190.16904541 -16.37446777 190.52168457 -17.15698242 190.88500977 C-19 191.625 -19 191.625 -21 191.625 C-19.34551866 173.59115336 -9.40618951 153.45448252 2 139.625 C5.43632231 140.77044077 6.33471585 141.8961508 8.625 144.625 C9.23601562 145.346875 9.84703125 146.06875 10.4765625 146.8125 C10.97929687 147.410625 11.48203125 148.00875 12 148.625 C13.57922406 150.20422406 15.19443874 149.832659 17.375 149.875 C18.16648437 149.90078125 18.95796875 149.9265625 19.7734375 149.953125 C22.02313893 149.76785108 22.02313893 149.76785108 23.7890625 148.546875 C25.77050506 145.40213391 25.54222762 143.25523315 25 139.625 C23.10440356 137.31050387 21.40880201 135.5635232 19.1875 133.625 C-3.8336777 112.01508223 -17.0032106 81.19796018 -18.19921875 49.81640625 C-18.64474591 33.28155066 -16.86061445 15.48902118 -5.5 2.375 C-3 0.625 -3 0.625 0 0 Z " fill="#FCFCFC" transform="translate(313,189.375)"/>
<path d="M0 0 C3.04746496 3.61393492 3.91862417 6.19882585 4 11 C1.38913942 18.08662158 -3.37019187 20.80850058 -10 24 C-45.03679286 40.07076846 -86.28076397 40.36165512 -124.0625 40.375 C-125.37456421 40.37699402 -126.68662842 40.37898804 -128.03845215 40.38104248 C-153.10488815 40.37672947 -178.17919438 39.57613803 -202.92773438 35.33935547 C-206.02460472 34.83221011 -209.13704639 34.45685399 -212.25 34.0625 C-228.30796347 31.74970198 -249.51047409 27.79766149 -260.671875 15.09765625 C-262.9243869 11.54001245 -262.62143415 8.06491044 -262 4 C-257.65545718 -4.49160641 -245.50503855 -8.53445267 -237.01953125 -11.484375 C-216.77482992 -17.95254652 -195.22828259 -21.06011546 -174.0625 -22.125 C-173.25542603 -22.16636078 -172.44835205 -22.20772156 -171.61682129 -22.25033569 C-31.94590239 -29.20544508 -31.94590239 -29.20544508 0 0 Z " fill="#F9F9FA" transform="translate(639,170)"/>
<path d="M0 0 C2.66998887 0.03647526 5.33857664 0.04101783 8.00878906 0.04052734 C46.23312244 0.19377268 46.23312244 0.19377268 60.07128906 13.05224609 C71.24063095 24.59702805 70.66856859 39.75463319 70.51660156 54.78271484 C70.17093825 69.87027843 67.04148514 84.27011792 56.34472656 95.60302734 C41.06516135 109.15559189 22.5489791 111.46323307 2.89599609 110.61572266 C-11.95448103 109.44560024 -23.94587759 103.6333556 -34.69433594 93.41162109 C-39.18604398 88.0308327 -42.14229041 81.9011083 -44.69433594 75.41162109 C-44.9320874 74.8223584 -45.16983887 74.2330957 -45.41479492 73.62597656 C-51.1643215 58.96780367 -54.48365509 37.5874081 -48.72167969 22.50537109 C-44.19217047 13.27412797 -38.49146987 7.17709345 -28.81103516 3.23852539 C-19.11838232 0.18905969 -10.09253879 -0.14207047 0 0 Z " fill="#06052D" transform="translate(455.6943359375,355.58837890625)"/>
<path d="M0 0 C0.92222351 -0.0033284 1.84444702 -0.0066568 2.7946167 -0.01008606 C4.7411652 -0.0151341 6.6877223 -0.01749504 8.63427734 -0.01733398 C11.58576014 -0.01951381 14.53686479 -0.03767392 17.48828125 -0.05664062 C19.38801957 -0.05957646 21.28775965 -0.06155998 23.1875 -0.0625 C24.05763733 -0.06968552 24.92777466 -0.07687103 25.82427979 -0.08427429 C38.15550182 -0.0391507 48.96097085 2.90896668 58.234375 11.41796875 C70.04730869 24.36403757 69.16132661 42.81008 68.5546875 59.25 C67.67752169 72.35485717 62.25088618 87.16558217 52.359375 96.16796875 C40.28237738 106.30912704 25.64648272 110.56953165 10.109375 110.41796875 C8.57422241 110.40455444 8.57422241 110.40455444 7.00805664 110.39086914 C-9.69241345 110.13426611 -23.26589608 106.47161229 -35.52734375 94.53125 C-48.37975479 80.15840586 -49.81416271 61.73270541 -50.078125 43.35546875 C-50.12388672 42.06576172 -50.16964844 40.77605469 -50.21679688 39.44726562 C-50.34250631 28.64171977 -47.60621031 20.38537458 -40.390625 12.23046875 C-29.5111454 2.42462201 -14.11933653 0.01789082 0 0 Z " fill="#07052D" transform="translate(647.640625,355.83203125)"/>
<path d="M0 0 C2.9375 2.125 2.9375 2.125 5 5 C5.37757032 9.43180897 4.59371753 12.91813049 3.25 17.125 C0.4993692 26.2806711 -1.22489565 35.61460783 -3 45 C-8.28 44.67 -13.56 44.34 -19 44 C-18.649375 42.494375 -18.29875 40.98875 -17.9375 39.4375 C-17.02483699 34.87418494 -16.87236473 31.5105411 -18 27 C-20.33320175 24.66679825 -20.848316 24.64390046 -24.03515625 24.53125 C-31.37658735 24.6889889 -38.15183939 27.31087195 -45.02331543 29.67102051 C-49.14495819 31.08630473 -53.28272974 32.45319296 -57.41796875 33.828125 C-58.24112579 34.10340027 -59.06428284 34.37867554 -59.91238403 34.66229248 C-66.98086553 37.01865855 -74.09296352 39.17654565 -81.25 41.25 C-89.69156902 43.7043547 -98.07773471 46.27993141 -106.4375 49 C-116.56171246 52.29115515 -126.75818456 55.25426201 -137.00878906 58.12524414 C-144.5064171 60.23981119 -151.91639542 62.50964522 -159.23413086 65.18603516 C-164.14484376 66.92564637 -168.84154039 67.60822767 -174 68 C-174 68.66 -174 69.32 -174 70 C-187.34088354 74.44696118 -203.97862591 69.33475521 -217.25 66.75 C-219.36824247 66.34895302 -221.48673167 65.94920694 -223.60546875 65.55078125 C-233.29748168 63.71917876 -242.97276962 61.81013582 -252.640625 59.85546875 C-260.56857884 58.25506932 -268.51399843 56.84583512 -276.5 55.5625 C-286.57821991 53.91468367 -296.63856121 52.19289502 -306.6875 50.375 C-315.27369415 48.82399551 -323.86303381 47.34959648 -332.48632812 46.02075195 C-338.07606957 45.15698285 -343.64479529 44.20246971 -349.21069336 43.19702148 C-353.54167786 42.41932928 -357.87811062 41.69052373 -362.22265625 40.9921875 C-363.30200439 40.81743896 -364.38135254 40.64269043 -365.4934082 40.46264648 C-367.62529725 40.11886559 -369.75792971 39.77965603 -371.89135742 39.44555664 C-372.87080322 39.28692139 -373.85024902 39.12828613 -374.859375 38.96484375 C-375.73045898 38.8268335 -376.60154297 38.68882324 -377.49902344 38.54663086 C-381.59095514 37.65226976 -384.35325664 36.62972379 -387.375 33.6875 C-389 31 -389 31 -389.0625 28.4375 C-387.53481566 24.93281239 -386.43186006 23.78456723 -383 22 C-374.42011336 21.89970072 -365.66612024 23.97364136 -357.25 25.4375 C-348.35572212 26.97619181 -339.48835735 28.38270667 -330.52636719 29.45727539 C-327.31849738 29.95098174 -324.24917803 30.67367451 -321.11071777 31.49021912 C-317.31745795 32.40636782 -313.46918722 32.98221189 -309.6171875 33.59375 C-307.73474155 33.89981704 -305.85233796 34.20614468 -303.9699707 34.51269531 C-302.97873199 34.67306274 -301.98749329 34.83343018 -300.96621704 34.99865723 C-281.36979775 38.17686279 -261.82886753 41.61336313 -242.3125 45.25 C-241.19494324 45.45810303 -240.07738647 45.66620605 -238.92596436 45.88061523 C-229.60972739 47.61778235 -220.29434284 49.35896202 -210.99047852 51.16137695 C-210.03622482 51.3455719 -209.08197113 51.52976685 -208.09880066 51.71954346 C-206.3204715 52.06348844 -204.54260775 52.40985316 -202.76533508 52.75921631 C-181.42938176 56.88428173 -161.76862344 49.00981495 -141.58203125 42.46875 C-136.68073688 40.88406524 -131.74961825 39.40610376 -126.8125 37.9375 C-120.88018154 36.17162436 -114.96254481 34.37080087 -109.0625 32.5 C-103.01234283 30.58324762 -96.9232027 28.83790372 -90.8125 27.125 C-82.63913975 24.82696758 -74.576672 22.27949969 -66.54223633 19.53564453 C-62.08779292 18.01588796 -57.62304819 16.57152229 -53.1171875 15.2109375 C-47.52035348 13.50430536 -41.98126433 11.65781095 -36.4453125 9.765625 C-34.74219762 9.18616816 -33.03907251 8.60674142 -31.3359375 8.02734375 C-28.71431008 7.13488534 -26.09395954 6.23926975 -23.4765625 5.33447266 C-20.90687175 4.44756715 -18.33288635 3.57425704 -15.7578125 2.703125 C-14.98164581 2.43131409 -14.20547913 2.15950317 -13.40579224 1.87945557 C-8.81413338 0.3411155 -4.90712974 -0.47214793 0 0 Z " fill="#F7F7F8" transform="translate(820,552)"/>
<path d="M0 0 C-1.35176894 10.5853717 -3.71061079 20.86672266 -6.13961792 31.24584961 C-9.58046994 45.96868251 -12.90705177 60.67369411 -15.46606445 75.57861328 C-16.6574847 82.48220254 -18.24355958 89.21946144 -20 96 C-20.68163031 98.74650868 -21.34380512 101.49731808 -22 104.25 C-22.15210938 104.87261719 -22.30421875 105.49523437 -22.4609375 106.13671875 C-23.74238806 111.52511334 -24.75418566 116.954835 -25.76039124 122.40060425 C-27.21738335 130.24732711 -28.81597773 138.06402052 -30.42456055 145.88085938 C-30.93553774 148.36545864 -31.44348827 150.85066341 -31.95117188 153.3359375 C-32.78553368 157.4114605 -33.63385842 161.48390093 -34.48956299 165.55499268 C-34.83575168 167.21324602 -35.17752972 168.87242514 -35.51531982 170.53240967 C-36.01727547 172.99772813 -36.53268645 175.45990463 -37.05078125 177.921875 C-37.19861557 178.66376068 -37.34644989 179.40564636 -37.49876404 180.17001343 C-38.80240373 186.24943746 -40.96628463 190.32894697 -46 194 C-54.8269268 199.56013894 -64.42721092 200.30641683 -74.671875 198.5390625 C-81.39059714 196.56978187 -86.20626194 192.83526339 -89.9375 186.9375 C-90.98292667 184.04720274 -91.26831345 182.04088574 -91 179 C-89.28125 177.85546875 -89.28125 177.85546875 -87 177 C-84.78125 177.86328125 -84.78125 177.86328125 -82.5 179.3125 C-75.104696 183.934565 -67.51171017 183.52743503 -59 183 C-55.28395193 182.09450727 -52.73543993 180.73543993 -50 178 C-49.83312552 175.41645782 -49.83312552 175.41645782 -50 173 C-52.36787729 171.81606136 -53.90182492 171.84530645 -56.54296875 171.7890625 C-57.45240234 171.76070312 -58.36183594 171.73234375 -59.29882812 171.703125 C-61.20489516 171.65157484 -63.11117002 171.6071513 -65.01757812 171.5703125 C-72.21788166 171.32709324 -77.00594519 170.16591199 -82.9375 165.875 C-85.47021032 162.34455531 -85.49203128 160.22109484 -85.37109375 155.98828125 C-85 154 -85 154 -83 152 C-79.85353667 152.27762912 -77.60668741 153.18909259 -74.75 154.5625 C-70.27309235 156.32560649 -65.87170687 156.30012331 -61.125 156.3125 C-59.9817627 156.32035522 -59.9817627 156.32035522 -58.81542969 156.32836914 C-54.43925319 156.42304587 -54.43925319 156.42304587 -51 154 C-50.37627132 152.21226537 -50.37627132 152.21226537 -49.96264648 150.13623047 C-49.78583847 149.34135223 -49.60903046 148.546474 -49.42686462 147.72750854 C-49.24346024 146.8661026 -49.06005585 146.00469666 -48.87109375 145.1171875 C-48.5792495 143.78483566 -48.5792495 143.78483566 -48.2815094 142.42556763 C-47.87043136 140.54163803 -47.46297343 138.65691545 -47.05883789 136.77148438 C-46.44407781 133.90566371 -45.81777456 131.04256189 -45.18945312 128.1796875 C-44.79097555 126.34650426 -44.39316801 124.51317522 -43.99609375 122.6796875 C-43.81066513 121.83042694 -43.62523651 120.98116638 -43.43418884 120.10617065 C-42.36187761 115.08107403 -41.56454606 110.10772773 -41 105 C-42.18335938 104.98582031 -43.36671875 104.97164062 -44.5859375 104.95703125 C-61.8132945 104.52703059 -61.8132945 104.52703059 -69 99 C-71.72830504 96.03096216 -72.16250773 93.78194143 -72.3125 89.875 C-72 86 -72 86 -70 83 C-67.3831179 83.50324656 -65.46265875 84.27438702 -63.0625 85.5 C-57.86195017 88.04720808 -52.84571561 88.20722829 -47.125 88.25 C-46.44308594 88.270625 -45.76117187 88.29125 -45.05859375 88.3125 C-39.98466177 88.35115853 -36.51773561 87.332465 -32 85 C-31.34 84.34 -30.68 83.68 -30 83 C-30.32198966 79.90073181 -30.32198966 79.90073181 -31 77 C-35.51351134 76.2230355 -39.68345486 75.95931608 -44.25537109 76.11621094 C-52.73761743 76.39332169 -58.23895801 76.01712918 -65 70.3125 C-66.57578662 66.66849345 -66.55407675 62.90732045 -66 59 C-65.34 58.01 -64.68 57.02 -64 56 C-60.76904665 56.58078219 -57.87648174 57.4072282 -54.8125 58.5625 C-49.78334904 60.09476017 -44.96875881 60.36515659 -39.75 60.4375 C-38.98147705 60.45949463 -38.2129541 60.48148926 -37.42114258 60.50415039 C-32.19444401 60.4854289 -29.09890626 59.52531718 -25 56 C-24.33256123 53.41344667 -24.33256123 53.41344667 -25 51 C-26.78053633 48.7857276 -26.78053633 48.7857276 -29.11962891 48.83642578 C-29.97991699 48.8723584 -30.84020508 48.90829102 -31.7265625 48.9453125 C-33.15162109 48.98205078 -33.15162109 48.98205078 -34.60546875 49.01953125 C-36.59537187 49.08903627 -38.58500138 49.16696033 -40.57421875 49.25390625 C-48.38948454 49.43272121 -53.70403638 48.04876635 -59.5 42.6875 C-61.45533658 39.18418863 -61.5035463 36.95643519 -61 33 C-59.5 30.5625 -59.5 30.5625 -58 29 C-54.85120272 29.49199958 -52.33859117 30.27725004 -49.375 31.51953125 C-44.85721031 33.23280181 -40.79310758 33.44861428 -36 33.375 C-34.86691406 33.39240234 -34.86691406 33.39240234 -33.7109375 33.41015625 C-27.6138591 33.37872801 -21.48701018 32.48701018 -17 28 C-17.32971479 24.70285207 -17.6226839 23.3773161 -20 21 C-22.62292276 20.78782727 -22.62292276 20.78782727 -25.671875 20.9453125 C-26.81140625 20.96980469 -27.9509375 20.99429688 -29.125 21.01953125 C-31.5262962 21.08939655 -33.9273701 21.16741617 -36.328125 21.25390625 C-47.2108488 21.46224668 -47.2108488 21.46224668 -52 17 C-54.49162615 14.01004862 -55.20760941 11.68313585 -55.375 7.875 C-55 4 -55 4 -53.8125 1.9375 C-52 1 -52 1 -49.8125 1.0625 C-47.39101351 1.86966216 -45.67224364 2.76075723 -43.4921875 4.0234375 C-38.4738573 6.54945797 -33.85223721 6.64740938 -28.3125 6.5625 C-27.34731445 6.55661865 -26.38212891 6.5507373 -25.38769531 6.54467773 C-17.40675956 6.33679909 -11.11520872 4.74161838 -4 1 C-2 0 -2 0 0 0 Z " fill="#F7F7F8" transform="translate(661,628)"/>
<path d="M0 0 C8.63039849 3.722917 12.91850665 12.71932398 16.2421875 21.00390625 C26.68632542 48.41023897 23.57457866 80.35628883 12.06201172 106.97753906 C8.61359068 114.31577904 5.20872481 120.8608257 -0.8125 126.375 C-1.40675781 125.58738281 -2.00101563 124.79976563 -2.61328125 123.98828125 C-16.91247157 105.14014638 -32.32575207 85.75391836 -52.8125 73.375 C-49.69238916 70.00856462 -45.96692898 67.65836253 -42.1875 65.09375 C-39.82959807 63.48830047 -39.82959807 63.48830047 -38.125 61.65625 C-36.8125 60.375 -36.8125 60.375 -34.8125 60.375 C-34.42771484 59.50101563 -34.42771484 59.50101563 -34.03515625 58.609375 C-32.70229732 56.17360725 -31.20067368 54.59537745 -29.25 52.625 C-18.38719263 40.63641077 -11.23041652 24.33344576 -8.78125 8.50390625 C-7.35883067 3.90972124 -4.91781178 0.65570824 0 0 Z " fill="#FBFBFB" transform="translate(709.8125,188.625)"/>
<path d="M0 0 C0.77794922 -0.01224609 1.55589844 -0.02449219 2.35742188 -0.03710938 C12.47797695 -0.06243186 21.37915983 2.70622385 28.953125 9.703125 C33.81383064 15.26658326 35.85659489 20.23807125 35.59375 27.54296875 C34.25040925 40.1741033 27.39608128 49.33141319 17.75 57.1875 C8.63864244 63.8829673 -2.81045678 67.58853901 -14.0625 67.5 C-14.81273437 67.49436035 -15.56296875 67.4887207 -16.3359375 67.48291016 C-26.05361303 67.26991423 -33.05892638 64.23510162 -40.6875 58.1875 C-47.1130766 51.42373516 -48.30745003 45.04537228 -48.09375 35.9453125 C-47.08292047 26.59513935 -41.4805229 19.41250563 -34.6875 13.1875 C-24.52133765 5.41429587 -12.8305642 0.01037232 0 0 Z " fill="#FBFBFB" transform="translate(799.6875,609.8125)"/>
<path d="M0 0 C3.91849569 0.0053967 7.83687872 0.00000956 11.75537109 -0.00634766 C14.26188176 -0.00568746 16.76839236 -0.00440751 19.27490234 -0.00244141 C21.02033325 -0.00547775 21.02033325 -0.00547775 22.80102539 -0.00857544 C28.28494257 0.00725094 33.49558243 0.2041228 38.89990234 1.13037109 C41.25346785 1.22923732 43.60778157 1.31104472 45.96240234 1.38037109 C62.70807374 2.17229219 79.98977848 5.07884563 96.08740234 9.75537109 C96.75707031 9.94905273 97.42673828 10.14273438 98.11669922 10.34228516 C101.40562034 11.38172493 103.72809994 12.3978488 105.89990234 15.13037109 C100.496529 18.27016912 94.99275631 19.41461972 88.89990234 20.63037109 C87.83465332 20.84540283 86.7694043 21.06043457 85.671875 21.28198242 C36.83661059 30.90214601 -56.79876906 42.24797381 -102.10009766 16.13037109 C-101.89306641 14.25537109 -101.89306641 14.25537109 -101.10009766 12.13037109 C-84.55264435 2.57993712 -58.56680761 2.80196206 -40.10009766 1.13037109 C-39.0661084 1.03175781 -38.03211914 0.93314453 -36.96679688 0.83154297 C-24.66609208 -0.17346898 -12.33285852 -0.02027148 0 0 Z " fill="#0A0930" transform="translate(508.10009765625,163.86962890625)"/>
<path d="M0 0 C2.66998887 0.03647526 5.33857664 0.04101783 8.00878906 0.04052734 C46.23312244 0.19377268 46.23312244 0.19377268 60.07128906 13.05224609 C71.24063095 24.59702805 70.66856859 39.75463319 70.51660156 54.78271484 C70.17093825 69.87027843 67.04148514 84.27011792 56.34472656 95.60302734 C41.06516135 109.15559189 22.5489791 111.46323307 2.89599609 110.61572266 C-11.95448103 109.44560024 -23.94587759 103.6333556 -34.69433594 93.41162109 C-39.18604398 88.0308327 -42.14229041 81.9011083 -44.69433594 75.41162109 C-44.9320874 74.8223584 -45.16983887 74.2330957 -45.41479492 73.62597656 C-51.1643215 58.96780367 -54.48365509 37.5874081 -48.72167969 22.50537109 C-44.19217047 13.27412797 -38.49146987 7.17709345 -28.81103516 3.23852539 C-19.11838232 0.18905969 -10.09253879 -0.14207047 0 0 Z M-35.24902344 21.24755859 C-42.48120799 30.93133113 -40.64776356 45.64783844 -39.39404297 57.171875 C-37.92999577 66.75625535 -35.19744804 75.32982556 -29.69433594 83.41162109 C-29.30503906 84.00072266 -28.91574219 84.58982422 -28.51464844 85.19677734 C-22.74382916 92.97743368 -12.06438944 98.44151254 -2.69433594 100.41162109 C13.88521365 101.5983425 30.34967312 102.13534778 44.36816406 92.09912109 C52.93921797 84.60750443 57.40569533 75.61802947 59.30566406 64.41162109 C59.52784453 59.83059592 59.49080506 55.24751232 59.49316406 50.66162109 C59.50541016 49.42412109 59.51765625 48.18662109 59.53027344 46.91162109 C59.54780151 35.92736387 59.04356782 27.63665681 51.30566406 19.41162109 C40.02442014 9.50613863 20.73087099 9.0376452 6.49755859 9.04101562 C4.43926278 9.03663938 2.38311531 9.00015785 0.32519531 8.96240234 C-12.77860708 8.85115832 -26.32874262 10.71355863 -35.24902344 21.24755859 Z " fill="#F4F4F6" transform="translate(455.6943359375,355.58837890625)"/>
<path d="M0 0 C0.92222351 -0.0033284 1.84444702 -0.0066568 2.7946167 -0.01008606 C4.7411652 -0.0151341 6.6877223 -0.01749504 8.63427734 -0.01733398 C11.58576014 -0.01951381 14.53686479 -0.03767392 17.48828125 -0.05664062 C19.38801957 -0.05957646 21.28775965 -0.06155998 23.1875 -0.0625 C24.05763733 -0.06968552 24.92777466 -0.07687103 25.82427979 -0.08427429 C38.15550182 -0.0391507 48.96097085 2.90896668 58.234375 11.41796875 C70.04730869 24.36403757 69.16132661 42.81008 68.5546875 59.25 C67.67752169 72.35485717 62.25088618 87.16558217 52.359375 96.16796875 C40.28237738 106.30912704 25.64648272 110.56953165 10.109375 110.41796875 C8.57422241 110.40455444 8.57422241 110.40455444 7.00805664 110.39086914 C-9.69241345 110.13426611 -23.26589608 106.47161229 -35.52734375 94.53125 C-48.37975479 80.15840586 -49.81416271 61.73270541 -50.078125 43.35546875 C-50.12388672 42.06576172 -50.16964844 40.77605469 -50.21679688 39.44726562 C-50.34250631 28.64171977 -47.60621031 20.38537458 -40.390625 12.23046875 C-29.5111454 2.42462201 -14.11933653 0.01789082 0 0 Z M-34.23828125 21.37109375 C-42.27100912 31.66372556 -40.38342048 46.87035747 -39.640625 59.16796875 C-38.20942343 70.35475266 -33.6977234 82.11087035 -25.640625 90.16796875 C-12.90860706 99.94519762 0.54819969 102.24978601 16.359375 101.16796875 C20.49050353 100.49259332 24.38094264 99.45857445 28.359375 98.16796875 C29.22175781 97.91273438 30.08414063 97.6575 30.97265625 97.39453125 C40.64290063 94.1159725 48.29642444 86.99812013 53.07446289 78.01635742 C57.31287262 68.62066555 57.81618483 58.63410831 57.671875 48.48046875 C57.67670898 46.7624707 57.67670898 46.7624707 57.68164062 45.00976562 C57.61367552 34.20331465 57.10245608 25.20957825 49.359375 17.16796875 C39.82215092 8.96152012 25.34279822 8.96153427 13.43115234 8.92773438 C11.39247287 8.91812476 9.35484576 8.88709545 7.31640625 8.85546875 C-6.90232797 8.7412127 -24.11724955 10.22605178 -34.23828125 21.37109375 Z " fill="#F5F5F7" transform="translate(647.640625,355.83203125)"/>
<path d="M0 0 C5.28 0 10.56 0 16 0 C14.71958952 8.14365339 13.14615816 16.11919795 11.1875 24.125 C10.92541748 25.20740967 10.66333496 26.28981934 10.39331055 27.4050293 C8.45002595 35.3526931 6.33393403 43.23930853 4.0859375 51.10546875 C3.09639617 54.58930143 2.2548152 58.0964833 1.4375 61.625 C-0.64240493 69.94461972 -3.50929388 76.24042125 -11 81 C-16.04039411 83.15319265 -21.21188338 84.79735791 -26.4375 86.4375 C-27.92961537 86.91864077 -29.42139296 87.40083024 -30.9128418 87.8840332 C-43.20194341 91.84187068 -55.57263428 95.50252511 -68 99 C-71.60813379 100.02359482 -75.2155148 101.04979204 -78.82250977 102.07739258 C-81.24570386 102.76768839 -83.66935919 103.45636743 -86.09350586 104.14331055 C-93.75524834 106.32384859 -101.34981694 108.64339728 -108.8984375 111.1875 C-112.10507005 112.02752465 -114.70134727 112.26898885 -118 112 C-121.23912262 109.81140363 -121.9218775 108.25734471 -123.0625 104.5 C-123 101 -123 101 -121.19921875 98.99609375 C-116.64664293 96.15559773 -111.902154 94.95864245 -106.75 93.5625 C-104.57286869 92.95069152 -102.39578555 92.33871163 -100.21875 91.7265625 C-98.62160156 91.28425293 -98.62160156 91.28425293 -96.9921875 90.83300781 C-93.06633382 89.7400727 -89.15702215 88.59561063 -85.25 87.4375 C-84.5794458 87.24019287 -83.9088916 87.04288574 -83.21801758 86.83959961 C-77.12000496 85.04409392 -71.03330043 83.21111016 -64.94799805 81.37304688 C-60.25838566 79.96117851 -55.56116025 78.58209627 -50.8515625 77.23828125 C-31.60638732 73.20329247 -31.60638732 73.20329247 -16 63 C-14.74051578 59.54515942 -13.90514982 56.01359523 -13.0625 52.4375 C-12.54468939 50.34494847 -12.02645434 48.25250192 -11.5078125 46.16015625 C-11.25418945 45.11746582 -11.00056641 44.07477539 -10.73925781 43.00048828 C-9.69833905 38.77562314 -8.56725816 34.57676563 -7.4375 30.375 C-4.76130205 20.29747602 -2.37390803 10.15224499 0 0 Z " fill="#F7F7F8" transform="translate(777,691)"/>
<path d="M0 0 C3.58867947 0.07177359 4.13774084 0.39726919 7.125 2.8125 C9.69838043 6.08771146 10.30777806 7.65536905 10.43359375 11.71875 C10.46646484 12.56050781 10.49933594 13.40226562 10.53320312 14.26953125 C10.59439657 16.04804712 10.65168906 17.8267015 10.70507812 19.60546875 C10.73923828 20.44722656 10.77339844 21.28898437 10.80859375 22.15625 C10.8336499 22.92904297 10.85870605 23.70183594 10.88452148 24.49804688 C11.02892072 26.67191665 11.02892072 26.67191665 13.1875 28.4375 C16.46349298 28.73059563 19.69637359 28.85206102 22.98242188 28.91601562 C28.79117524 29.1383862 33.678916 30.242489 38.1875 34.1875 C39.72364887 37.64383495 39.21248431 39.85005492 38.1875 43.4375 C32.65776428 48.82544762 27.73194436 48.69673698 20.39648438 48.8671875 C16.17906723 48.94086404 16.17906723 48.94086404 12.46435547 50.68652344 C10.84362364 52.90906429 10.81891423 54.19598796 10.81640625 56.9296875 C10.79900391 57.79980469 10.78160156 58.66992188 10.76367188 59.56640625 C10.75459626 61.38930777 10.74935457 63.21223261 10.74804688 65.03515625 C10.65828621 69.22605058 10.5496367 71.80657739 8.4296875 75.5 C5.36966555 78.14420015 3.31485922 78.45937913 -0.62109375 78.71875 C-2.8125 78.4375 -2.8125 78.4375 -5.8125 76.0625 C-6.4725 75.19625 -7.1325 74.33 -7.8125 73.4375 C-8.3075 72.9425 -8.3075 72.9425 -8.8125 72.4375 C-8.93314851 70.90025869 -8.99201941 69.35805465 -9.0234375 67.81640625 C-9.05179688 66.88119141 -9.08015625 65.94597656 -9.109375 64.98242188 C-9.16135111 62.99823375 -9.20565436 61.01382941 -9.2421875 59.02929688 C-9.273125 58.09279297 -9.3040625 57.15628906 -9.3359375 56.19140625 C-9.35575684 55.32845947 -9.37557617 54.4655127 -9.39599609 53.57641602 C-9.53344238 52.87057373 -9.67088867 52.16473145 -9.8125 51.4375 C-12.84609964 49.41510024 -13.46146413 49.1927995 -16.8671875 49.1640625 C-17.64707031 49.1434375 -18.42695312 49.1228125 -19.23046875 49.1015625 C-20.86057301 49.07564669 -22.4908171 49.05734227 -24.12109375 49.046875 C-29.26265032 48.8944071 -32.09031876 48.33484271 -35.8125 44.4375 C-37.40995879 41.24258241 -37.32066842 37.90540611 -36.8125 34.4375 C-34.60509319 31.46891843 -33.32652627 30.60884209 -29.8125 29.4375 C-26.1987631 29.20983458 -22.59106997 29.0437574 -18.97265625 28.91992188 C-15.1286247 28.74337623 -13.07872847 28.61498564 -9.8125 26.4375 C-9.35489255 24.49436694 -9.35489255 24.49436694 -9.40625 22.26171875 C-9.38433594 21.43349609 -9.36242187 20.60527344 -9.33984375 19.75195312 C-9.33082031 18.88505859 -9.32179688 18.01816406 -9.3125 17.125 C-9.14289834 1.04918505 -9.14289834 1.04918505 0 0 Z " fill="#F8F9F9" transform="translate(817.8125,326.5625)"/>
<path d="M0 0 C0.78246094 0.06703125 1.56492188 0.1340625 2.37109375 0.203125 C4.98046062 0.8543039 5.92365454 1.64506088 7.5625 3.75 C8.47667135 6.49251406 8.7079946 8.25749088 8.7734375 11.09375 C8.80179688 11.92777344 8.83015625 12.76179688 8.859375 13.62109375 C8.91145196 15.37348334 8.95572543 17.12612224 8.9921875 18.87890625 C9.023125 19.71292969 9.0540625 20.54695313 9.0859375 21.40625 C9.1156665 22.54803711 9.1156665 22.54803711 9.14599609 23.71289062 C9.6750696 26.3005749 10.44486981 27.19715182 12.5625 28.75 C15.40722942 29.05127481 18.08994951 29.21632964 20.9375 29.25 C27.45053769 29.32780079 31.54623403 29.83427623 36.4375 34.5625 C37.5625 36.75 37.5625 36.75 37.5625 39.6875 C36.3201984 43.49204865 34.61430898 45.20682585 31.5625 47.75 C27.26213902 49.18345366 22.86808038 49.06756561 18.3671875 49.1796875 C14.35448915 49.2832477 14.35448915 49.2832477 10.85742188 51.02636719 C9.28629066 53.11765421 9.18227148 54.2114109 9.15625 56.8046875 C9.13433594 57.58457031 9.11242187 58.36445313 9.08984375 59.16796875 C9.08082031 59.97878906 9.07179687 60.78960937 9.0625 61.625 C8.98716138 68.33013725 8.57661475 72.52059134 3.8125 77.625 C0.37060577 79.34594712 -1.798944 78.78958743 -5.4375 77.75 C-9.1675551 73.92178555 -10.53286974 71.20266043 -10.75390625 65.9609375 C-10.79580078 65.01992188 -10.83769531 64.07890625 -10.88085938 63.109375 C-10.92017578 62.12453125 -10.95949219 61.1396875 -11 60.125 C-11.04318359 59.13242187 -11.08636719 58.13984375 -11.13085938 57.1171875 C-11.23711069 54.66160162 -11.33914964 52.20591297 -11.4375 49.75 C-14.19464287 48.83095238 -15.86730212 48.62774078 -18.7109375 48.609375 C-19.5359375 48.59003906 -20.3609375 48.57070313 -21.2109375 48.55078125 C-22.93726739 48.51708412 -24.66396825 48.4987099 -26.390625 48.49609375 C-30.82544888 48.36484507 -32.85282792 48.19905227 -36.46875 45.421875 C-38.97166762 42.02505823 -39.58821292 39.96996174 -39.4375 35.75 C-37.28317661 33.071652 -35.51241161 31.28745581 -32.4375 29.75 C-31.0985465 29.62311796 -29.75437525 29.54830001 -28.41015625 29.50390625 C-27.22196289 29.45459961 -27.22196289 29.45459961 -26.00976562 29.40429688 C-24.34062803 29.34324671 -22.67134931 29.28593653 -21.00195312 29.23242188 C-20.20853516 29.19826172 -19.41511719 29.16410156 -18.59765625 29.12890625 C-17.87199463 29.1038501 -17.14633301 29.07879395 -16.39868164 29.05297852 C-14.11881318 28.84171499 -14.11881318 28.84171499 -11.4375 26.75 C-10.99546433 24.72412647 -10.99546433 24.72412647 -11.06640625 22.390625 C-11.04900391 21.52179688 -11.03160156 20.65296875 -11.01367188 19.7578125 C-11.00463483 17.93491079 -10.99936022 16.11198613 -10.99804688 14.2890625 C-10.87381588 8.48019256 -10.27648722 5.19891977 -6.4375 0.75 C-3.98972161 -0.4738892 -2.70359459 -0.266364 0 0 Z " fill="#F8F8F9" transform="translate(205.4375,339.25)"/>
<path d="M0 0 C4.22274316 1.10595654 6.2008874 4.19761376 8.625 7.6875 C10.5 11.125 10.5 11.125 11.625 13.6875 C15.27500667 12.20645516 17.0222891 10.18951403 19.4375 7.125 C22.12700152 4.03631458 23.34402908 2.79407518 27.25 1.3125 C31.59560871 1.79534541 33.83467686 3.49524666 36.625 6.6875 C37.53997656 7.94462077 38.43619425 9.21562351 39.3125 10.5 C40.075625 11.551875 40.83875 12.60375 41.625 13.6875 C42.615 13.6875 43.605 13.6875 44.625 13.6875 C46.2225883 11.55903299 46.2225883 11.55903299 47.625 8.875 C50.98572091 2.80994898 50.98572091 2.80994898 53.625 0.6875 C57.13355014 0.16494998 58.96226554 0.31364979 62.0625 2.0625 C64.12783538 5.53226344 64.00198549 7.61307537 63.4375 11.55859375 C61.227481 20.06929192 57.58510817 29.13752546 51.625 35.6875 C48.42245853 37.28877074 46.17185436 37.09451607 42.625 36.6875 C36.6579161 33.23633889 32.61605526 27.14639017 28.625 21.6875 C24.94496721 25.25601664 21.58250318 29.00249058 18.2734375 32.91796875 C15.7565134 35.61978538 13.96323263 36.63006427 10.3125 37.25 C6.20542535 36.62349709 4.66820327 35.56903946 2.1796875 32.2734375 C-2.74659244 24.07947438 -8.16340688 14.44244664 -6.375 4.6875 C-4.46035845 1.78008135 -3.31157506 0.95861383 0 0 Z " fill="#090830" transform="translate(534.375,471.3125)"/>
<path d="M0 0 C4.18222557 0.76816388 5.44061521 2.24492439 8.0625 5.5625 C8.75800334 8.31717608 8.80740698 10.98078004 8.8125 13.8125 C8.47802966 18.56826773 8.47802966 18.56826773 10.0625 22.5625 C13.15604137 22.73226751 16.24205702 22.85953117 19.33984375 22.90429688 C24.15721498 23.10778112 26.70079052 24.10618331 30.0625 27.5625 C31.125 30.5 31.125 30.5 31.0625 33.5625 C28.96221854 36.93795234 27.86047116 38.29650961 24.0625 39.5625 C20.41656483 39.87133216 16.77009455 40.07208559 13.1171875 40.28125 C10.18931152 40.22258904 10.18931152 40.22258904 9.0625 41.5625 C8.85879684 44.65577022 8.71639648 47.74126629 8.6328125 50.83984375 C8.42743235 55.19561453 7.81122727 58.13301318 5.0625 61.5625 C1.6875 62.6875 1.6875 62.6875 -1.9375 62.5625 C-5.68343646 59.78027103 -6.82313128 58.30738198 -7.5390625 53.64453125 C-7.57065209 52.22168335 -7.57795464 50.79811461 -7.5625 49.375 C-7.5625 46.71993119 -7.68417277 44.21654455 -7.9375 41.5625 C-11.51770617 39.17569589 -14.23519456 39.26688265 -18.375 39.1875 C-25.30000891 39.03857508 -25.30000891 39.03857508 -28.375 36.7421875 C-30.6833643 33.5220193 -30.55727929 31.41890447 -29.9375 27.5625 C-27.07956204 24.53069509 -25.39381612 23.62899591 -21.23828125 23.0234375 C-19.22594725 22.98007673 -17.21360725 22.93680614 -15.20117188 22.8984375 C-11.12143085 22.90983448 -11.12143085 22.90983448 -7.9375 20.5625 C-7.67872006 17.19836081 -7.57100432 13.87597904 -7.546875 10.50390625 C-7.4304694 6.99233723 -7.21794276 4.93622688 -5.08203125 2.08984375 C-2.9375 0.5625 -2.9375 0.5625 0 0 Z " fill="#F6F6F7" transform="translate(207.9375,535.4375)"/>
<path d="M0 0 C1.9375 1.4375 1.9375 1.4375 3 3 C2.82006836 4.99072266 2.82006836 4.99072266 2 7 C0.24438477 8.00146484 0.24438477 8.00146484 -2.05859375 8.7109375 C-2.9103418 8.98309082 -3.76208984 9.25524414 -4.63964844 9.53564453 C-5.56293945 9.81263184 -6.48623047 10.08961914 -7.4375 10.375 C-9.36860461 10.98401038 -11.29959233 11.59339154 -13.23046875 12.203125 C-14.20290527 12.50412109 -15.1753418 12.80511719 -16.17724609 13.11523438 C-19.48594655 14.15231537 -22.76787961 15.25741253 -26.04980469 16.37573242 C-33.25323052 18.82882984 -40.49895791 21.06804238 -47.81079102 23.17407227 C-52.47902127 24.52673318 -57.08406788 26.00265936 -61.6875 27.5625 C-67.37483749 29.48405859 -73.08215612 31.2170077 -78.86328125 32.83203125 C-82.18127033 33.76086572 -85.48767305 34.72619673 -88.79296875 35.69921875 C-90.35543335 36.15868896 -90.35543335 36.15868896 -91.94946289 36.62744141 C-94.00773668 37.23351418 -96.06554713 37.84116361 -98.12280273 38.45068359 C-105.0403461 40.4824577 -111.99353579 42.30068834 -119 44 C-117.36667373 40.73334747 -113.83511686 39.93620749 -110.625 38.5 C-104.36133257 35.63225712 -98.24897764 32.58427542 -92.1875 29.3125 C-17.14418883 -10.76495578 -17.14418883 -10.76495578 0 0 Z " fill="#F5F5F7" transform="translate(782,544)"/>
<path d="M0 0 C3.62760073 1.64890942 6.08652985 3.47518657 8 7 C8.60225269 10.95766056 8.16187311 12.69937852 6.25 16.25 C2.97142857 20.25714286 2.97142857 20.25714286 0 21 C-4.16158711 21.06018824 -7.09464706 20.69642534 -10.4375 18.125 C-13.30758483 14.22168463 -13.40733937 10.72513672 -13 6 C-9.27625236 0.29025362 -6.72149163 -0.45569435 0 0 Z " fill="#F6F6F7" transform="translate(473,422)"/>
<path d="M0 0 C2.98382952 2.00951784 4.65226733 3.32885758 5.40234375 6.93359375 C5.6119254 11.36834155 4.88551666 14.49615834 2 18 C-1.42094119 20.56570589 -4.84773484 20.43708054 -9 20 C-12.38939556 17.86320715 -13.72582557 16.8225233 -15 13 C-15.57279236 5.8973747 -15.57279236 5.8973747 -13.125 2.0625 C-9.03473853 -1.90745966 -5.30584874 -1.30816615 0 0 Z " fill="#F6F6F8" transform="translate(234,224)"/>
<path d="M0 0 C4.84825193 0.3232168 7.17623447 1.67623447 10.5625 5.0625 C12.1956216 8.07088189 12.2242025 9.8628393 11.75 13.25 C8.59210526 18.82894737 8.59210526 18.82894737 5.75 20.25 C-2.94379015 21.17390453 -2.94379015 21.17390453 -6.8125 18.4375 C-9.45282018 14.41962147 -9.73851288 10.97229119 -9.25 6.25 C-6.8125 3.375 -6.8125 3.375 -4.25 1.25 C-3.25 0.25 -3.25 0.25 0 0 Z " fill="#F5F5F6" transform="translate(659.25,422.75)"/>
<path d="M0 0 C2.70567626 1.82339052 4.53728718 3.07457436 6 6 C6.90133507 12.76001303 6.90133507 12.76001303 4.6484375 15.859375 C1.7855468 18.5078642 -0.25074606 19.86513429 -4.125 20.5625 C-7.37073638 19.92746462 -9.3590987 18.98067597 -12 17 C-14.66836411 12.99745384 -14.8340238 9.70686701 -14 5 C-9.54542867 -0.62682695 -6.93538616 -1.52813593 0 0 Z " fill="#F4F4F5" transform="translate(772,225)"/>
<path d="M0 0 C3.80470451 0.7133821 5.41196019 1.67868421 8 4.5625 C9.125 7.9375 9.125 7.9375 9 11.5625 C7.0625 15 7.0625 15 4 17.5625 C0.88121827 18.42540403 -0.65888492 18.1458693 -4 17.5625 C-7.24985922 14.88136615 -7.89575014 13.21116582 -8.5625 9.0625 C-8 5.5625 -8 5.5625 -5.875 2.625 C-3 0.5625 -3 0.5625 0 0 Z " fill="#F5F5F7" transform="translate(729,351.4375)"/>
<path d="M0 0 C3.53217343 0.87415962 4.98154065 2.50905961 6.94140625 5.48046875 C7.01027176 9.40580263 6.49498084 11.61689239 4.37890625 14.91796875 C0.90337222 17.14587518 -2.04126412 17.28063502 -6.05859375 16.48046875 C-9.38059351 14.35098172 -9.95449524 12.81725805 -11.12109375 9.04296875 C-11.05859375 5.48046875 -11.05859375 5.48046875 -9.12109375 2.54296875 C-5.75123359 0.27347109 -3.97578542 -0.27913484 0 0 Z " fill="#F4F4F6" transform="translate(394.05859375,352.51953125)"/>
<path d="M0 0 C3.34367769 1.08863925 6.48138767 2.4291062 9.6875 3.875 C9.6875 4.205 9.6875 4.535 9.6875 4.875 C4.31858121 4.37630596 -1.00485173 3.85272468 -6.3125 2.875 C-3.03057967 -0.16381512 -3.03057967 -0.16381512 0 0 Z " fill="#DEDFE4" transform="translate(565.3125,581.125)"/>
<path d="M0 0 C0 3 0 3 -1.75 5.04296875 C-2.4925 5.75066406 -3.235 6.45835937 -4 7.1875 C-4.7425 7.90292969 -5.485 8.61835938 -6.25 9.35546875 C-7.11625 10.16951172 -7.11625 10.16951172 -8 11 C-8.66 10.67 -9.32 10.34 -10 10 C-8.90033225 8.70450101 -7.79508199 7.41373929 -6.6875 6.125 C-6.07261719 5.40570313 -5.45773437 4.68640625 -4.82421875 3.9453125 C-3 2 -3 2 0 0 Z " fill="#191839" transform="translate(598,354)"/>
<path d="M0 0 C0 0.66 0 1.32 0 2 C-0.928125 2.268125 -1.85625 2.53625 -2.8125 2.8125 C-5.8311641 3.93710035 -6.9155143 4.70706573 -9 7 C-9.66 7 -10.32 7 -11 7 C-8.76456876 1.59770784 -5.88000164 -0.49000014 0 0 Z " fill="#252442" transform="translate(565,473)"/>
<path d="M0 0 C0.66 0.33 1.32 0.66 2 1 C-0.5061033 4.75915495 -1.81949803 4.72563254 -6.125 5.6875 C-7.76855469 6.06455078 -7.76855469 6.06455078 -9.4453125 6.44921875 C-10.70988281 6.72185547 -10.70988281 6.72185547 -12 7 C-10.54312306 4.08624612 -8.49246097 3.64222221 -5.5625 2.3125 C-4.57378906 1.85488281 -3.58507812 1.39726563 -2.56640625 0.92578125 C-1.29603516 0.46751953 -1.29603516 0.46751953 0 0 Z " fill="#C4C5D0" transform="translate(675,581)"/>
<path d="M0 0 C0.33 0 0.66 0 1 0 C1.95261487 4.76307437 2.08333357 9.1666528 2 14 C1.01 13.34 0.02 12.68 -1 12 C-0.67 8.04 -0.34 4.08 0 0 Z " fill="#BDBDCC" transform="translate(731,416)"/>
<path d="M0 0 C0 0.66 0 1.32 0 2 C-2.64 2.66 -5.28 3.32 -8 4 C-7.67 3.01 -7.34 2.02 -7 1 C-4.53721199 -0.231394 -2.7204945 -0.07159196 0 0 Z " fill="#302E4B" transform="translate(537,472)"/>
</svg>
