<?xml version="1.0" standalone="no"?><!DOCTYPE svg PUBLIC "-//W3C//DTD SVG 1.1//EN" "http://www.w3.org/Graphics/SVG/1.1/DTD/svg11.dtd"><svg height="1024" node-id="1" sillyvg="true" template-height="1024" template-width="1024" version="1.1" viewBox="0 0 1024 1024" width="1024" xmlns="http://www.w3.org/2000/svg" xmlns:xlink="http://www.w3.org/1999/xlink"><defs node-id="16"></defs><path d="M 448.73 135.69 C 466.52 133.09 491.29 139.66 510.02 140.09 C 526.07 140.46 541.89 137.19 557.96 137.02 C 572.18 136.87 599.42 137.25 609.55 147.70 C 613.04 151.29 614.35 156.09 614.79 160.95 C 616.16 176.29 612.88 197.31 611.79 213.21 C 610.30 235.11 610.01 257.33 609.96 279.29 C 615.40 276.96 621.03 275.22 626.73 273.68 C 641.73 269.63 647.72 270.94 662.00 276.45 C 668.52 278.95 675.08 281.36 681.68 283.67 C 687.56 277.22 692.33 269.93 697.29 262.78 L 718.17 233.17 C 722.70 226.62 726.97 219.57 732.00 213.41 C 737.14 207.10 743.82 201.40 752.27 200.76 C 758.19 200.31 764.06 201.89 769.48 204.13 C 795.47 214.88 808.10 238.20 827.83 255.79 C 837.87 264.73 850.22 270.67 860.43 279.58 C 870.67 288.51 890.31 308.18 890.89 321.99 C 891.18 328.78 886.39 333.21 882.23 337.90 C 885.43 341.83 888.83 345.62 892.14 349.46 C 888.10 355.40 883.00 360.85 878.34 366.32 C 870.51 375.52 862.62 384.66 854.65 393.74 C 832.81 418.78 810.66 444.50 789.38 470.01 C 796.79 481.08 803.85 492.48 811.03 503.71 C 814.41 508.99 818.28 514.05 821.32 519.53 C 822.11 520.95 823.30 523.22 823.12 524.91 C 822.98 526.24 822.47 527.23 821.37 528.02 C 820.03 528.96 818.24 529.45 816.64 528.89 C 814.90 528.28 813.53 526.47 812.46 525.06 C 808.57 519.97 805.24 513.98 801.71 508.60 C 795.20 498.69 788.42 488.86 782.33 478.69 C 769.33 493.31 757.07 508.69 744.42 523.62 L 666.05 615.93 C 659.90 616.40 618.29 617.47 615.60 615.93 C 615.35 614.84 615.50 614.26 615.82 613.20 C 618.87 611.62 654.17 613.68 662.72 612.53 C 662.92 612.50 663.12 612.47 663.32 612.44 C 662.03 608.95 660.22 605.66 658.51 602.36 C 651.14 601.94 616.51 603.08 612.94 601.31 C 612.82 600.76 612.41 600.04 612.88 599.58 C 612.91 599.55 613.69 599.01 613.76 598.98 C 616.00 598.28 652.12 598.96 657.30 598.96 C 649.37 580.13 639.55 567.67 627.40 551.78 C 617.75 555.41 607.06 557.67 597.04 560.12 C 601.10 573.45 604.55 586.78 607.86 600.31 C 610.48 611.03 613.92 621.78 613.44 632.95 C 612.75 648.94 604.33 664.74 592.61 675.42 C 590.54 659.68 589.14 575.82 585.16 568.92 L 584.34 568.76 C 582.75 570.40 582.43 573.03 582.33 575.23 C 582.22 577.72 582.87 580.33 583.03 582.82 C 583.50 590.45 583.83 598.09 584.23 605.72 C 585.59 633.81 586.67 661.92 587.46 690.04 C 587.85 702.97 589.01 716.41 588.56 729.30 C 588.51 730.96 588.45 733.80 587.29 735.12 C 584.77 737.97 578.32 738.46 574.79 739.04 C 576.09 748.13 577.61 757.06 579.37 766.08 C 581.35 765.45 584.20 764.38 586.27 764.60 C 591.40 765.13 603.20 777.99 606.52 782.05 C 614.98 792.39 624.26 806.41 622.50 820.46 C 621.78 826.28 618.45 831.36 613.84 834.90 C 607.67 839.63 600.16 840.33 592.72 839.18 C 571.49 835.90 542.17 816.03 529.78 799.00 C 526.88 795.00 524.13 789.72 525.04 784.65 C 525.56 781.78 526.65 780.68 528.99 779.03 C 527.52 765.89 527.94 752.52 528.08 739.32 C 524.00 738.75 518.53 738.29 515.98 734.59 C 515.28 733.58 515.34 731.71 515.32 730.53 C 514.83 693.71 515.59 656.35 515.56 619.47 L 515.49 587.34 C 515.46 580.99 514.64 573.35 516.02 567.18 C 518.63 555.57 525.67 546.05 535.75 539.83 C 545.51 533.80 557.60 531.43 568.84 534.15 C 582.09 537.36 589.07 545.34 595.91 556.58 C 615.70 552.53 636.48 546.13 654.79 537.45 C 663.14 533.48 671.67 526.99 680.50 524.48 C 678.62 512.40 678.71 499.99 679.24 487.80 C 679.50 481.60 680.59 474.67 679.70 468.51 C 679.27 465.58 676.77 464.00 674.45 462.57 C 669.85 459.75 665.42 457.84 660.29 456.19 C 654.32 454.27 645.94 453.38 640.95 449.54 C 639.50 448.42 637.88 446.71 637.73 444.79 C 637.56 442.63 640.14 441.41 641.24 439.87 C 642.16 438.58 641.74 437.58 641.51 436.16 C 641.32 434.99 641.03 433.80 641.39 432.62 C 642.03 430.51 643.31 430.03 645.13 429.00 L 645.78 428.64 C 645.19 427.31 643.72 424.50 643.99 423.04 C 644.31 421.36 650.95 411.37 652.30 410.49 C 658.70 406.33 672.17 410.89 678.93 412.66 C 681.55 380.75 682.17 348.63 684.25 316.67 C 684.83 307.69 684.79 298.30 685.92 289.40 C 644.78 305.17 603.35 320.13 561.63 334.29 C 545.05 340.54 528.04 345.49 511.45 351.71 L 396.33 311.74 C 376.61 304.71 357.03 295.90 336.91 290.20 C 337.18 301.91 338.63 313.81 339.46 325.51 C 341.54 354.85 343.90 384.37 345.03 413.76 C 351.30 411.61 362.92 408.15 369.21 410.39 C 371.17 411.10 372.20 412.29 373.01 414.17 C 373.85 416.10 374.10 417.18 375.79 418.47 C 376.75 419.19 378.01 419.98 378.63 421.04 C 379.53 422.57 379.55 423.60 379.21 425.27 C 378.99 426.41 378.86 427.36 378.85 428.51 C 381.93 434.03 379.97 432.53 379.87 437.42 C 379.84 438.99 380.56 439.36 381.58 440.27 C 383.21 441.72 384.59 443.17 384.47 445.52 C 384.34 448.09 381.23 450.05 379.21 451.08 C 376.11 452.64 372.37 453.33 369.02 454.28 C 360.90 456.60 350.97 460.05 344.91 466.18 C 344.76 466.34 344.61 466.50 344.46 466.65 C 343.46 480.66 345.49 494.96 344.51 509.06 C 344.20 513.57 343.58 517.76 340.02 520.85 C 371.25 538.73 395.08 550.30 430.92 556.32 C 431.47 555.24 432.06 554.18 432.69 553.14 C 438.57 543.61 446.84 536.97 457.89 534.46 C 469.10 531.90 481.80 533.84 491.49 540.13 C 492.07 540.51 492.64 540.90 493.19 541.31 C 493.75 541.72 494.30 542.14 494.83 542.57 C 495.37 543.00 495.90 543.45 496.41 543.90 C 496.93 544.36 497.43 544.83 497.92 545.32 C 498.41 545.80 498.89 546.30 499.36 546.80 C 499.83 547.31 500.28 547.83 500.72 548.36 C 501.16 548.89 501.59 549.43 502.01 549.98 C 502.43 550.53 502.83 551.09 503.21 551.66 C 503.60 552.23 503.98 552.80 504.34 553.39 C 504.70 553.98 505.04 554.58 505.37 555.18 C 505.70 555.79 506.02 556.40 506.32 557.02 C 506.62 557.64 506.90 558.27 507.17 558.90 C 507.44 559.54 507.70 560.18 507.94 560.83 C 508.17 561.47 508.40 562.13 508.60 562.78 C 508.81 563.44 509.00 564.10 509.17 564.77 C 509.35 565.44 509.50 566.11 509.65 566.78 C 511.01 573.45 510.45 580.97 510.37 587.77 C 510.19 597.32 510.10 606.86 510.09 616.41 L 510.11 693.80 C 510.11 704.94 510.58 716.18 510.29 727.31 C 510.22 729.83 510.37 733.00 508.82 735.12 C 506.82 737.85 503.10 738.21 500.01 738.64 C 501.02 759.11 501.54 780.01 501.49 800.51 C 494.15 808.92 483.52 816.37 474.28 822.60 C 460.72 831.75 440.18 844.60 423.24 840.99 C 417.45 839.76 411.75 836.78 408.50 831.67 C 404.91 826.03 405.26 818.25 406.85 811.98 C 410.88 796.17 422.38 783.84 433.60 772.71 C 435.69 770.64 437.35 767.73 439.95 766.29 C 443.17 764.53 446.66 765.95 449.94 766.81 C 450.75 757.40 451.09 748.00 451.55 738.57 C 449.31 738.40 446.92 738.20 444.73 737.69 C 442.01 737.07 439.47 735.75 438.69 732.87 C 437.46 728.36 438.76 712.70 438.84 706.80 L 440.77 616.38 C 441.14 602.84 442.18 589.24 442.13 575.70 C 442.13 573.76 442.40 570.01 441.34 568.39 C 439.95 568.28 439.93 568.29 438.75 569.06 C 438.03 570.41 437.70 571.53 437.52 573.05 C 437.11 576.62 437.43 580.41 437.33 584.01 C 437.06 591.37 436.84 598.74 436.67 606.11 C 436.00 629.76 435.07 653.36 435.15 677.02 C 426.39 672.61 420.06 666.17 415.69 657.33 C 404.86 635.41 413.11 612.96 419.71 591.29 C 422.92 580.75 425.89 570.14 429.43 559.70 C 425.22 558.81 420.90 558.48 416.68 557.58 C 409.18 555.97 401.85 553.61 394.54 551.31 C 391.46 556.94 387.20 562.20 383.54 567.49 C 376.76 577.31 370.27 587.87 365.56 598.83 C 374.36 598.09 383.51 598.50 392.34 598.46 C 397.72 598.43 403.68 597.88 409.00 598.39 C 410.40 598.52 410.97 598.76 411.91 599.78 L 411.68 601.12 C 408.20 602.68 371.66 602.11 364.65 602.22 C 363.37 605.59 362.53 609.25 361.54 612.73 C 369.35 613.12 403.37 611.54 407.64 613.52 L 407.99 615.07 L 407.36 615.77 C 402.52 616.92 385.68 616.13 379.80 616.11 C 372.77 616.09 365.74 616.41 358.71 616.52 C 354.96 611.60 350.41 607.05 346.34 602.37 C 336.85 591.48 327.28 580.64 317.97 569.59 C 298.05 545.71 277.98 521.96 257.74 498.35 C 251.97 491.67 246.46 484.74 240.51 478.20 C 237.22 484.23 210.79 527.34 206.92 529.00 C 205.73 529.51 204.56 529.44 203.37 528.94 C 202.22 528.46 201.35 527.52 201.04 526.30 C 200.61 524.57 201.50 522.36 202.25 520.84 C 205.23 514.87 209.53 509.23 213.06 503.54 C 219.95 492.47 226.60 481.30 234.06 470.58 C 210.42 443.22 187.14 415.57 164.22 387.61 C 154.19 375.45 140.93 361.10 132.38 348.22 C 135.30 344.54 138.76 341.20 141.79 337.58 C 137.44 332.68 133.33 327.24 133.78 320.32 C 134.88 303.30 156.62 283.27 169.71 273.82 C 178.26 267.65 187.50 262.85 195.33 255.68 C 207.74 244.31 217.92 230.61 230.72 219.73 C 241.96 210.18 258.27 198.64 273.93 200.19 C 277.89 200.59 282.16 202.47 285.14 205.12 C 292.61 211.79 298.53 222.16 304.08 230.47 C 315.89 248.15 327.08 267.11 340.51 283.56 C 344.94 281.42 349.80 279.76 354.43 278.07 C 376.75 269.91 388.07 273.32 409.95 280.56 C 410.38 270.20 409.99 259.63 409.97 249.25 C 410.06 233.99 409.99 218.74 409.76 203.48 C 409.41 188.91 407.80 173.41 409.74 158.94 C 410.31 154.69 411.62 150.26 414.44 146.94 C 422.21 137.84 437.60 136.57 448.73 135.69 Z M 136.82 321.61 C 137.50 324.41 138.17 326.93 139.90 329.32 C 144.29 335.41 149.69 341.05 154.49 346.87 L 194.33 394.37 L 328.10 552.77 C 339.40 566.90 352.08 580.12 362.92 594.57 C 370.85 578.93 380.96 564.40 391.25 550.24 C 376.52 544.57 346.36 531.72 335.11 521.37 C 340.48 514.68 341.51 506.20 340.63 497.81 C 339.91 491.06 336.74 485.05 333.94 478.98 C 328.24 466.59 322.49 453.61 322.00 439.77 C 321.80 434.21 322.53 428.58 326.03 424.03 C 329.85 419.06 335.53 416.57 341.26 414.52 C 339.74 386.11 337.94 357.72 335.86 329.34 C 335.03 317.03 333.32 303.39 333.29 291.23 C 333.29 289.77 333.44 288.08 334.36 286.88 C 334.72 286.43 335.35 286.00 335.80 285.65 C 335.29 283.02 292.94 220.25 289.24 215.19 C 287.14 212.32 284.96 209.12 281.97 207.11 C 277.76 204.29 273.89 203.33 268.86 203.61 C 258.94 205.70 250.28 209.55 242.01 215.44 C 225.09 227.47 213.04 244.28 197.86 258.18 C 190.53 264.90 182.27 269.66 174.08 275.16 C 162.72 282.81 151.77 293.00 144.22 304.48 C 140.72 309.80 138.15 315.37 136.82 321.61 Z M 144.47 340.80 C 141.95 343.34 139.27 345.83 136.92 348.53 C 140.36 353.66 144.65 358.43 148.59 363.21 L 169.73 388.56 C 189.93 413.04 210.38 437.31 231.10 461.35 C 273.21 510.23 313.87 560.35 356.57 608.71 L 358.65 610.68 C 359.99 607.03 360.52 602.68 361.38 598.87 C 354.37 589.31 346.36 580.43 338.70 571.39 C 328.59 559.46 318.67 547.46 308.42 535.64 C 288.57 512.77 269.16 489.37 249.67 466.18 L 166.56 366.83 C 163.06 362.66 147.55 342.73 144.47 340.80 Z M 660.06 595.08 C 672.40 579.71 685.54 563.67 698.41 548.79 C 708.08 538.01 717.15 526.75 726.46 515.66 L 783.64 447.50 L 856.39 361.88 C 865.15 351.54 874.38 341.43 882.91 330.92 C 884.92 328.44 886.67 325.70 887.45 322.59 C 884.26 305.14 860.74 283.39 846.67 273.67 C 838.82 268.24 830.35 263.41 823.40 256.81 C 804.27 238.61 780.78 201.91 750.79 204.61 C 746.02 206.12 742.11 208.04 738.47 211.60 C 731.98 217.94 726.84 227.37 721.56 234.85 L 686.12 284.90 C 687.05 285.53 687.81 285.56 688.88 285.72 C 689.85 286.76 689.72 287.56 689.70 288.92 C 689.60 298.50 688.38 308.30 687.84 317.91 L 684.39 384.13 C 683.91 394.15 683.04 404.27 682.91 414.29 C 690.75 418.07 698.46 422.37 701.44 431.21 C 705.45 443.16 696.78 463.45 691.32 473.96 C 689.69 477.10 686.55 480.50 685.52 483.78 C 683.56 490.00 683.80 513.38 684.65 520.33 C 684.92 522.51 686.46 526.84 683.85 527.66 C 683.72 527.70 682.03 527.91 682.00 527.92 C 677.35 528.55 660.17 539.09 653.93 541.95 C 646.17 545.50 638.27 548.37 630.17 551.07 C 641.80 559.68 653.49 581.90 660.06 595.08 Z M 353.38 444.76 C 357.71 443.09 375.37 439.17 376.94 435.94 C 377.25 435.29 376.93 434.80 376.75 434.14 C 375.44 432.82 374.29 432.44 372.47 432.50 C 365.36 432.74 352.85 437.86 346.53 440.97 C 342.61 442.90 338.74 445.57 334.56 446.85 L 334.79 446.81 L 333.35 446.00 C 340.81 436.27 356.98 432.97 368.05 429.63 C 369.72 429.13 375.47 428.99 376.15 427.43 C 376.58 426.43 376.46 425.13 375.91 424.19 C 375.09 422.80 373.41 422.26 371.91 422.07 C 363.46 421.04 347.18 427.53 339.48 431.38 C 337.57 432.33 335.72 433.97 333.80 434.73 C 332.51 435.25 332.27 435.05 331.19 434.41 L 330.67 433.14 C 333.04 428.35 345.94 424.11 350.75 422.48 C 354.15 421.33 368.70 418.55 370.16 417.28 C 370.32 416.16 370.51 416.46 369.87 415.70 C 368.47 414.04 367.14 413.50 365.04 413.23 C 354.88 414.01 336.72 418.08 329.93 425.94 C 325.64 430.90 325.35 437.36 325.96 443.58 C 327.17 455.83 333.29 471.22 340.50 481.15 C 340.96 475.83 339.39 465.95 343.63 462.31 C 349.93 456.90 360.57 452.89 368.46 450.58 C 371.40 449.72 374.79 449.47 377.49 448.05 C 378.95 447.28 379.73 446.49 380.26 444.90 C 379.99 443.71 379.88 443.19 378.68 442.56 C 374.04 440.16 350.08 449.88 345.01 452.33 C 342.85 453.38 337.89 456.88 335.70 456.64 C 334.99 455.64 335.06 455.70 335.27 454.47 C 338.74 449.90 348.03 446.76 353.38 444.76 Z M 685.03 477.19 C 691.23 467.92 700.35 445.82 698.26 434.59 C 697.20 428.90 693.27 424.55 688.54 421.47 C 679.90 415.83 666.13 412.07 655.85 413.03 C 654.77 413.97 653.44 414.83 653.14 416.29 C 653.76 417.20 654.02 417.36 655.11 417.73 C 658.78 419.00 662.98 419.54 666.79 420.41 C 674.97 422.26 682.53 425.32 689.76 429.56 C 691.62 430.66 694.33 431.97 695.16 433.98 C 694.68 435.19 694.64 435.14 693.47 435.75 C 688.91 435.22 684.82 430.74 680.68 428.86 C 674.96 426.27 655.03 420.17 649.36 421.55 C 648.26 422.49 648.29 422.48 648.04 423.90 C 648.59 425.78 649.31 426.97 651.04 427.99 C 651.91 428.51 652.73 428.68 653.71 428.89 C 667.58 431.74 681.31 436.50 692.91 444.78 C 692.80 446.12 692.52 446.04 691.61 446.95 C 688.00 447.55 679.18 440.93 675.45 439.21 C 669.25 436.36 663.11 434.83 656.48 433.46 C 652.72 432.68 648.22 430.74 645.11 434.00 C 644.73 435.25 644.73 435.31 645.14 436.55 C 645.87 437.28 646.48 437.82 647.47 438.16 C 649.65 438.91 652.21 438.77 654.49 439.18 C 657.05 439.63 659.63 440.41 662.13 441.08 C 666.95 442.64 683.90 448.56 686.36 453.14 C 686.61 453.60 686.61 453.89 686.66 454.37 C 685.83 455.12 686.24 455.04 685.22 454.97 C 681.74 454.74 677.36 451.37 674.23 449.88 C 667.17 446.51 650.63 439.80 642.93 443.51 L 642.33 444.56 C 642.68 445.82 642.95 446.73 644.16 447.43 C 646.66 448.88 650.77 449.42 653.59 450.17 C 663.83 452.90 679.77 457.21 683.89 468.20 C 684.95 471.00 684.72 474.24 685.03 477.19 Z M 360.75 293.87 C 365.06 297.93 486.26 339.52 498.07 342.34 C 492.06 339.02 485.40 337.00 479.44 333.70 C 464.54 328.13 449.91 322.05 434.85 316.82 C 410.54 308.40 385.42 301.15 360.75 293.87 Z M 477.69 314.78 C 484.97 319.72 491.99 325.00 498.74 330.63 C 502.63 333.84 507.66 339.63 511.95 341.77 L 512.45 341.64 C 518.13 336.82 523.64 331.80 529.47 327.17 C 535.22 322.60 541.39 318.39 546.91 313.56 C 535.18 310.30 523.64 307.01 511.32 307.70 C 499.65 308.72 488.92 311.75 477.69 314.78 Z M 676.83 286.06 C 668.60 283.18 660.46 280.08 652.41 276.75 C 648.05 275.49 644.42 274.51 639.84 274.72 C 625.07 275.41 599.86 287.05 586.89 294.17 C 577.38 299.40 568.41 305.62 559.19 311.33 C 552.79 315.31 545.38 319.00 539.55 323.76 C 539.77 323.81 539.99 323.93 540.21 323.89 C 541.82 323.62 546.29 320.13 547.97 319.13 C 555.76 314.48 563.73 309.93 571.84 305.85 C 580.99 301.24 590.62 297.32 600.18 293.66 C 606.66 291.19 644.66 278.32 648.28 281.31 L 648.46 281.02 L 647.45 280.96 L 647.27 282.01 C 640.48 286.04 626.73 288.71 618.72 291.12 C 609.92 293.81 601.25 296.85 592.70 300.23 C 574.53 307.35 560.26 316.63 543.10 324.93 C 541.69 326.70 537.41 328.68 535.37 329.97 L 535.28 330.43 C 539.26 328.71 542.85 326.24 546.67 324.24 C 552.58 321.14 558.80 318.44 564.87 315.68 C 589.08 304.64 615.02 295.46 640.70 288.54 C 643.79 287.71 650.41 284.64 653.27 285.32 C 654.54 285.62 654.85 286.00 655.57 286.97 C 654.96 288.00 654.10 288.25 653.00 288.62 C 649.19 289.88 644.94 290.50 641.01 291.52 C 633.97 293.39 627.00 295.49 620.11 297.84 C 597.55 305.32 576.00 313.92 554.49 323.93 C 547.02 327.41 538.47 331.01 531.90 336.00 C 538.55 334.95 545.86 330.38 552.10 327.81 C 559.39 324.81 566.86 322.17 574.25 319.44 C 594.67 311.91 615.38 305.57 636.08 298.90 C 649.56 294.56 663.12 289.57 676.83 286.06 Z M 478.12 330.27 C 481.94 331.57 485.59 333.91 489.55 334.60 C 484.90 331.18 477.95 328.81 472.69 326.25 C 443.43 312.02 413.27 303.09 381.72 295.48 C 371.42 292.99 360.99 290.99 350.74 288.33 C 347.88 288.26 345.01 287.52 342.20 286.98 C 345.73 288.87 350.15 290.37 354.15 290.64 C 370.34 294.63 386.30 299.60 402.28 304.35 C 427.69 311.89 453.78 319.72 478.12 330.27 Z M 887.12 349.80 C 885.11 347.46 881.68 342.51 878.89 341.29 C 865.72 355.77 853.70 371.42 840.91 386.24 C 803.57 429.41 766.68 472.95 730.22 516.86 C 718.39 531.19 706.11 545.15 694.33 559.50 C 683.36 572.85 672.85 586.94 660.88 599.40 C 662.54 602.50 664.15 606.62 666.43 609.25 C 667.53 609.02 667.06 609.28 667.86 608.49 L 818.76 429.99 L 865.71 375.35 C 872.77 367.08 880.99 358.74 887.12 349.80 Z M 600.31 634.61 C 601.35 623.69 602.35 610.66 600.09 599.90 C 598.94 598.95 597.95 599.02 596.49 598.81 C 596.61 602.30 596.42 632.98 596.62 633.49 C 596.75 633.83 597.06 634.08 597.27 634.37 C 598.30 634.51 599.27 634.61 600.31 634.61 Z M 453.03 767.97 C 457.47 770.23 472.55 776.58 474.38 780.62 L 473.81 781.18 C 465.56 780.67 446.58 764.68 439.84 770.71 C 437.90 772.44 436.42 774.68 434.57 776.52 C 423.36 787.60 409.47 803.00 409.12 819.81 C 409.02 824.25 410.34 828.46 413.47 831.70 C 417.07 835.42 424.08 838.23 429.33 838.21 C 447.90 838.11 471.75 820.70 486.18 809.46 C 489.73 806.70 493.73 803.93 496.82 800.65 C 498.35 799.05 498.50 797.80 498.37 795.66 C 498.35 795.19 498.29 794.72 498.24 794.25 L 497.90 789.88 L 497.65 789.97 L 497.72 789.26 C 481.14 804.12 451.67 830.69 428.79 829.51 C 425.31 829.33 421.16 829.04 418.46 826.65 C 418.06 825.57 417.99 825.52 418.32 824.43 C 421.21 823.52 425.11 825.78 428.11 826.14 C 431.37 826.54 435.14 825.78 438.29 824.95 C 462.65 818.57 478.94 799.36 498.02 784.79 C 498.01 769.49 496.80 754.21 496.78 738.91 C 482.62 739.54 468.74 739.62 454.57 738.86 C 454.37 748.49 454.40 758.44 453.03 767.97 Z M 424.32 598.10 C 424.18 605.33 423.38 627.95 424.71 633.67 C 425.66 634.00 426.53 634.29 427.52 634.45 C 428.50 631.65 428.53 602.66 427.73 599.12 C 426.58 598.37 425.63 598.27 424.32 598.10 Z M 531.86 739.72 C 529.90 748.34 530.35 777.08 534.97 784.39 C 542.40 796.14 567.29 812.30 580.02 818.36 C 582.65 819.63 585.34 820.72 588.11 821.66 C 590.87 822.59 593.68 823.36 596.54 823.95 C 599.09 824.47 605.62 823.83 606.93 825.77 C 606.46 826.89 606.23 827.46 605.03 828.01 C 598.83 830.84 578.04 821.68 572.14 818.47 C 560.11 811.93 548.93 803.40 538.84 794.16 C 536.99 792.47 530.20 783.73 529.49 783.48 C 528.78 783.88 528.78 783.68 528.60 784.45 C 527.70 788.32 530.73 794.46 532.93 797.47 C 537.79 804.13 544.89 810.19 551.50 815.12 C 564.22 824.38 585.76 838.29 602.29 835.90 C 607.70 835.12 612.65 832.32 615.86 827.85 C 619.29 823.05 619.91 817.45 618.79 811.76 C 615.41 794.59 600.07 777.69 586.11 768.03 C 580.48 769.62 574.90 771.36 569.59 773.85 C 566.34 775.37 560.50 779.62 557.11 779.68 C 556.23 778.69 556.23 778.63 556.10 777.30 C 557.83 774.45 572.63 768.61 576.42 767.14 C 573.91 758.01 572.84 748.76 571.52 739.42 C 558.42 740.87 544.93 742.05 531.86 739.72 Z M 569.12 300.56 C 581.14 292.66 593.47 286.57 606.60 280.73 C 605.89 256.74 606.78 231.84 608.55 207.92 C 609.65 193.01 612.58 177.64 611.45 162.69 C 611.10 158.04 610.19 153.03 606.57 149.74 C 595.64 139.80 561.83 139.98 547.46 141.10 C 533.57 142.19 520.17 144.55 506.17 143.77 C 489.53 142.84 465.53 137.09 449.76 139.20 C 439.65 139.90 424.38 141.40 417.13 149.47 C 414.14 152.79 413.25 159.21 412.84 163.53 C 411.54 177.32 413.04 191.77 413.12 205.64 L 413.44 247.43 C 413.48 258.96 413.31 270.56 414.05 282.07 C 429.25 287.93 445.47 294.73 458.85 304.15 C 460.74 294.30 468.98 285.53 477.02 280.06 C 491.65 270.13 512.52 267.36 529.67 270.65 C 540.58 272.75 551.28 277.62 559.27 285.45 C 563.68 289.99 566.60 294.77 569.12 300.56 Z M 483.48 328.27 C 482.71 326.38 474.81 322.52 472.57 321.27 C 450.67 309.09 428.39 299.88 404.31 292.97 C 398.37 291.26 392.44 289.38 386.49 287.75 C 381.20 286.31 372.26 285.94 367.95 282.67 L 367.88 281.82 L 368.74 281.26 C 375.39 280.44 386.73 284.40 393.31 286.21 C 416.70 292.64 441.64 300.56 463.02 312.21 C 469.75 315.87 476.42 319.64 482.90 323.71 C 487.08 326.35 491.21 329.53 495.60 331.79 C 487.49 324.52 476.95 318.89 467.62 313.34 C 455.28 306.01 443.00 298.55 429.92 292.59 C 421.17 288.64 412.24 285.15 403.12 282.14 C 381.71 275.10 372.06 274.83 350.68 283.17 C 349.47 283.64 347.54 284.19 346.99 285.42 L 350.06 285.86 C 381.76 293.11 413.09 299.58 443.86 310.43 C 451.33 313.03 458.63 316.06 465.75 319.50 C 470.17 321.66 479.59 327.27 483.48 328.27 Z" fill="#010000" fill-rule="nonzero" node-id="18" stroke="none" target-height="711.504" target-width="759.758" target-x="132.378" target-y="133.092"></path><path d="M 444.57 776.94 C 449.80 777.66 460.06 782.15 463.61 786.32 C 464.45 787.30 464.25 787.65 464.15 788.86 C 461.56 788.79 446.71 781.16 444.91 779.21 C 444.30 778.55 444.56 777.78 444.57 776.94 Z" fill="#010000" fill-rule="nonzero" node-id="20" stroke="none" target-height="11.927002" target-width="20.143005" target-x="444.304" target-y="776.936"></path><path d="M 582.12 776.52 C 582.38 776.50 582.64 776.46 582.89 776.45 C 584.21 776.42 584.49 776.30 585.51 777.16 L 585.46 778.05 C 582.30 780.96 572.13 785.42 567.73 787.94 L 566.72 788.40 C 565.54 788.23 565.47 788.12 564.58 787.30 L 564.62 786.23 C 568.57 782.04 576.87 778.82 582.12 776.52 Z" fill="#010000" fill-rule="nonzero" node-id="22" stroke="none" target-height="12.096985" target-width="20.926025" target-x="564.584" target-y="776.301"></path><path d="M 856.72 755.50 L 858.19 755.56 C 858.28 755.67 858.86 756.34 858.93 756.45 C 859.17 756.82 858.90 757.08 858.75 757.50 C 854.05 761.71 837.58 766.73 830.99 768.89 C 769.03 789.18 702.92 799.35 637.88 802.05 C 637.08 802.03 636.51 801.95 635.75 801.78 C 635.45 800.71 635.28 800.64 635.63 799.52 C 638.38 798.06 642.51 798.37 645.60 798.27 C 664.27 797.69 682.87 796.11 701.38 793.53 C 742.69 787.78 783.70 780.31 823.51 767.60 C 834.74 764.01 845.72 759.75 856.72 755.50 Z" fill="#010000" fill-rule="nonzero" node-id="24" stroke="none" target-height="46.55194" target-width="223.89203" target-x="635.282" target-y="755.4971"></path><path d="M 164.92 753.84 C 170.17 754.12 183.51 761.83 189.53 764.01 C 199.28 767.51 209.14 770.68 219.10 773.54 C 229.05 776.41 239.09 778.94 249.21 781.16 C 277.70 787.26 306.42 791.97 335.36 795.30 C 345.52 796.34 355.68 797.21 365.87 797.89 C 371.40 798.28 380.30 797.88 385.28 799.47 C 386.16 800.68 385.99 800.81 385.86 802.33 C 374.77 802.56 363.44 801.32 352.40 800.38 C 301.33 796.08 230.36 784.79 183.21 765.27 C 177.85 763.05 171.09 760.82 166.53 757.16 C 165.19 756.10 165.14 755.49 164.92 753.84 Z" fill="#010000" fill-rule="nonzero" node-id="26" stroke="none" target-height="48.72101" target-width="221.23901" target-x="164.922" target-y="753.839"></path><path d="M 529.91 348.61 C 530.80 348.73 531.57 348.95 532.42 349.22 C 533.11 350.55 533.04 352.28 533.07 353.75 C 533.26 361.56 532.86 369.43 532.84 377.25 L 532.94 423.64 C 533.00 458.53 533.60 493.57 532.99 528.45 C 532.94 530.87 532.94 531.37 531.25 533.01 C 530.89 532.71 530.74 532.60 530.43 532.21 C 528.31 529.45 529.84 415.34 529.84 401.53 C 529.82 391.14 529.75 380.75 529.62 370.37 C 529.52 363.27 528.94 355.64 529.91 348.61 Z" fill="#010000" fill-rule="nonzero" node-id="28" stroke="none" target-height="184.40002" target-width="5.296997" target-x="528.306" target-y="348.61"></path><path d="M 492.97 348.11 C 494.22 348.77 494.94 348.87 495.34 350.33 C 496.44 354.37 495.48 396.11 495.47 403.43 C 495.39 444.89 496.39 486.48 495.61 527.93 C 495.57 529.74 495.57 531.18 494.65 532.80 C 493.68 532.56 493.24 532.45 492.58 531.67 C 492.03 524.94 492.38 518.09 492.38 511.33 L 492.35 475.73 L 492.08 391.07 C 492.05 382.31 490.78 354.76 492.97 348.11 Z" fill="#010000" fill-rule="nonzero" node-id="30" stroke="none" target-height="184.693" target-width="5.6640015" target-x="490.779" target-y="348.112"></path><path d="M 761.01 629.73 C 767.62 630.41 774.79 632.85 781.15 634.78 C 810.21 643.60 840.31 655.85 864.72 674.24 C 868.62 677.17 881.91 687.58 882.53 692.04 C 881.92 692.21 881.33 692.46 880.70 692.53 C 879.29 692.69 873.86 687.06 872.51 685.83 C 860.27 674.64 846.86 666.36 832.11 658.87 C 816.23 650.81 799.61 644.67 782.69 639.17 C 779.12 638.01 775.53 636.77 771.91 635.76 C 769.04 634.97 765.15 634.74 762.54 633.34 C 761.21 632.63 761.29 631.06 761.01 629.73 Z" fill="#010000" fill-rule="nonzero" node-id="32" stroke="none" target-height="62.959106" target-width="121.51898" target-x="761.015" target-y="629.73"></path><path d="M 315.97 652.97 C 317.08 652.84 317.60 652.97 318.63 653.41 L 318.96 654.38 C 318.16 655.84 316.89 656.60 315.57 657.51 C 306.95 663.47 297.60 668.57 288.73 674.16 C 263.44 690.11 237.90 705.81 212.79 722.03 L 212.00 722.48 L 210.67 721.96 L 210.56 720.57 C 211.71 718.55 213.95 716.90 215.84 715.59 C 219.26 713.23 223.12 711.19 226.67 709.00 L 252.45 693.05 C 273.68 679.78 294.62 666.06 315.97 652.97 Z" fill="#010000" fill-rule="nonzero" node-id="34" stroke="none" target-height="69.63904" target-width="108.405" target-x="210.55899" target-y="652.839"></path><path d="M 222.97 640.56 C 224.28 640.57 224.49 640.66 225.62 641.33 C 225.05 643.09 223.54 643.65 221.96 644.31 C 215.06 647.22 208.01 649.72 201.17 652.80 C 181.12 661.84 161.65 674.37 146.81 690.64 C 145.68 690.54 145.56 690.56 144.69 689.84 L 144.74 688.74 C 147.21 684.47 151.61 680.98 155.31 677.78 C 157.78 675.68 160.30 673.65 162.88 671.68 C 165.45 669.71 168.07 667.81 170.74 665.97 C 173.40 664.13 176.12 662.36 178.87 660.66 C 181.63 658.96 184.43 657.33 187.27 655.77 C 190.11 654.20 192.98 652.72 195.90 651.30 C 198.81 649.88 201.76 648.54 204.74 647.27 C 207.72 646.00 210.73 644.80 213.77 643.68 C 216.81 642.57 219.88 641.52 222.97 640.56 Z" fill="#010000" fill-rule="nonzero" node-id="36" stroke="none" target-height="50.086" target-width="80.925" target-x="144.693" target-y="640.559"></path><path d="M 737.68 679.71 C 738.87 679.80 739.92 680.10 740.96 680.69 C 746.46 683.78 751.73 687.68 757.00 691.18 C 767.87 698.40 778.69 705.69 789.48 713.03 C 793.43 715.72 802.78 721.11 805.77 724.29 C 806.80 725.39 806.39 726.44 806.27 727.79 C 805.30 727.67 804.40 727.36 803.56 726.86 C 791.69 719.77 780.46 711.21 768.92 703.55 C 763.27 699.80 741.72 686.77 738.47 683.29 C 737.42 682.17 737.68 681.11 737.68 679.71 Z" fill="#010000" fill-rule="nonzero" node-id="38" stroke="none" target-height="48.087036" target-width="69.388" target-x="737.416" target-y="679.705"></path><path d="M 680.21 721.93 C 684.26 723.02 711.63 742.84 713.61 746.03 C 714.07 746.77 713.63 747.42 713.43 748.20 C 712.83 748.09 712.20 748.03 711.62 747.82 C 708.65 746.75 680.98 725.99 679.98 723.81 C 679.60 722.96 679.91 722.76 680.21 721.93 Z" fill="#010000" fill-rule="nonzero" node-id="40" stroke="none" target-height="26.266052" target-width="34.47699" target-x="679.595" target-y="721.9329"></path><path d="M 363.79 709.73 L 365.09 710.38 L 365.37 711.57 C 363.55 715.48 341.56 733.58 336.77 736.71 C 335.96 736.23 335.57 735.74 335.03 734.99 C 335.65 732.23 359.66 713.18 363.79 709.73 Z" fill="#010000" fill-rule="nonzero" node-id="42" stroke="none" target-height="26.973999" target-width="30.343964" target-x="335.027" target-y="709.731"></path></svg>