<?xml version="1.0" standalone="no"?><!DOCTYPE svg PUBLIC "-//W3C//DTD SVG 1.1//EN" "http://www.w3.org/Graphics/SVG/1.1/DTD/svg11.dtd"><svg height="1024" node-id="1" sillyvg="true" template-height="1024" template-width="1024" version="1.1" viewBox="0 0 1024 1024" width="1024" xmlns="http://www.w3.org/2000/svg" xmlns:xlink="http://www.w3.org/1999/xlink"><defs node-id="29"></defs><path d="M 905.70 241.54 C 906.12 241.59 906.72 241.65 907.10 241.80 C 908.15 242.21 908.64 242.82 909.13 243.80 C 911.51 248.62 914.62 261.01 916.34 266.76 C 920.48 280.58 925.82 294.94 928.48 309.08 C 928.73 310.41 928.98 311.50 928.53 312.81 C 927.31 313.81 926.16 314.33 924.67 314.84 C 916.33 317.71 907.16 319.31 898.62 321.86 C 865.95 331.60 833.14 340.85 800.19 349.60 C 800.03 349.62 799.87 349.64 799.70 349.66 C 799.32 349.71 798.93 349.78 798.55 349.82 C 795.65 350.12 794.03 348.20 791.99 346.47 L 783.79 319.66 C 780.91 310.52 776.71 300.72 776.15 291.12 C 779.33 286.66 780.99 280.91 783.66 276.08 C 804.16 268.16 826.39 263.62 847.65 258.09 C 867.10 253.04 886.40 247.15 905.70 241.54 Z M 806.27 337.00 C 804.90 339.04 803.44 340.98 802.71 343.36 L 803.14 343.78 L 804.11 343.44 C 834.47 334.56 865.05 326.57 895.39 317.62 C 903.65 315.19 915.24 313.49 922.62 309.83 C 923.10 308.72 923.24 307.68 922.86 306.49 C 922.71 306.02 922.42 305.71 922.14 305.33 L 921.27 305.09 C 912.68 306.96 904.18 309.74 895.69 312.08 L 832.90 329.55 C 824.06 332.00 815.20 334.95 806.27 337.00 Z M 780.93 293.35 C 782.84 302.47 786.36 311.47 789.07 320.39 C 791.23 327.50 792.78 337.38 796.44 343.72 C 797.83 340.99 799.28 338.28 800.53 335.48 C 796.06 328.36 793.80 314.81 791.48 306.41 C 789.42 299.19 787.30 291.99 785.11 284.80 C 783.58 287.60 782.24 290.44 780.93 293.35 Z" fill="#0f0d10" fill-rule="nonzero" node-id="31" stroke="none" target-height="108.58" target-width="152.82599" target-x="776.154" target-y="241.541"></path><path d="M 180.11 587.87 C 181.40 586.65 184.08 583.56 185.99 583.68 C 189.16 583.89 229.91 619.77 232.37 623.36 C 232.72 623.85 232.77 624.00 233.08 624.58 C 231.65 629.13 156.00 718.09 152.27 719.92 C 150.38 720.85 147.72 720.19 145.80 719.59 C 128.60 707.70 112.00 693.95 96.60 679.79 C 96.95 679.06 97.30 678.37 97.72 677.68 C 103.72 667.83 168.17 585.99 173.71 585.08 C 176.17 584.67 178.20 586.56 180.11 587.87 Z M 225.13 627.71 C 223.34 627.57 221.65 627.07 219.92 626.62 C 215.64 629.62 206.41 642.79 202.48 647.50 L 176.09 678.56 C 166.72 689.79 157.55 701.18 147.80 712.09 C 148.41 713.16 149.03 713.81 149.96 714.62 C 156.06 711.67 198.55 660.44 206.11 651.09 C 212.32 643.40 218.16 634.69 225.13 627.71 Z M 220.08 621.16 L 220.85 620.34 L 220.61 619.25 C 216.17 614.75 189.95 590.42 185.95 589.84 L 183.96 591.83 C 186.03 595.73 213.37 619.23 217.29 620.71 C 218.20 621.05 219.12 621.13 220.08 621.16 Z" fill="#0f0d10" fill-rule="nonzero" node-id="33" stroke="none" target-height="137.29395" target-width="136.4826" target-x="96.599396" target-y="583.559"></path><path d="M 180.11 587.87 C 181.40 586.65 184.08 583.56 185.99 583.68 C 189.16 583.89 229.91 619.77 232.37 623.36 C 232.72 623.85 232.77 624.00 233.08 624.58 C 231.65 629.13 156.00 718.09 152.27 719.92 C 150.38 720.85 147.72 720.19 145.80 719.59 L 149.38 718.74 C 150.36 717.42 149.99 716.24 149.96 714.62 C 156.06 711.67 198.55 660.44 206.11 651.09 C 212.32 643.40 218.16 634.69 225.13 627.71 C 223.34 627.57 221.65 627.07 219.92 626.62 C 220.25 625.14 220.23 624.01 219.75 622.57 C 219.68 622.33 219.59 622.10 219.50 621.87 L 220.08 621.16 L 220.85 620.34 L 220.61 619.25 C 216.17 614.75 189.95 590.42 185.95 589.84 L 183.96 591.83 L 183.46 589.40 C 182.41 588.32 181.54 588.27 180.11 587.87 Z" fill="#0f0d10" fill-rule="nonzero" node-id="35" stroke="none" target-height="137.29395" target-width="87.27901" target-x="145.803" target-y="583.559"></path><path d="M 107.88 298.86 C 115.96 298.72 130.25 302.95 138.81 304.59 L 191.10 315.02 C 201.87 317.14 212.80 318.80 223.46 321.42 C 226.37 326.15 228.17 331.77 230.85 336.70 C 230.15 342.65 228.22 348.51 226.84 354.34 C 223.80 367.17 220.98 379.80 216.85 392.35 C 215.43 392.80 214.34 392.84 212.86 392.70 C 208.44 392.27 203.87 390.95 199.50 390.10 C 190.84 388.48 182.20 386.80 173.56 385.07 C 147.79 379.94 121.87 375.10 96.30 369.00 L 96.15 368.61 C 95.40 368.88 95.79 368.87 94.99 368.59 C 94.90 368.30 94.78 368.02 94.71 367.73 C 93.84 364.05 105.78 302.60 107.88 298.86 Z M 210.35 386.88 C 209.44 385.03 208.40 383.56 207.10 381.98 C 186.02 377.41 164.88 373.10 143.70 369.04 C 129.08 366.22 114.01 363.74 99.69 359.65 C 99.52 361.16 99.04 362.96 99.75 364.36 C 105.26 366.59 111.69 367.48 117.51 368.71 C 129.26 371.20 141.05 373.44 152.83 375.82 C 166.19 378.64 179.57 381.37 192.97 384.00 C 198.67 385.07 204.57 386.46 210.35 386.88 Z M 214.61 382.88 C 219.41 368.34 222.13 352.89 225.81 338.03 C 224.80 335.38 223.95 332.28 222.26 329.99 C 219.55 340.82 217.16 351.60 214.68 362.49 C 213.52 367.59 211.66 373.25 211.38 378.48 C 211.33 379.46 211.48 380.34 212.06 381.17 C 212.62 381.96 213.69 382.63 214.61 382.88 Z" fill="#0f0d10" fill-rule="nonzero" node-id="37" stroke="none" target-height="94.11798" target-width="137.006" target-x="93.84" target-y="298.724"></path><path d="M 852.83 389.19 C 852.98 389.16 853.12 389.13 853.27 389.11 C 864.02 387.42 882.29 389.70 891.23 396.18 C 893.63 397.92 895.86 400.38 896.24 403.43 C 896.52 405.69 895.75 407.83 894.34 409.59 C 889.09 416.14 875.86 419.33 867.87 420.33 C 855.71 421.08 841.20 421.78 830.64 414.48 C 827.81 412.52 825.22 409.73 824.74 406.19 C 824.41 403.83 825.18 401.58 826.63 399.72 C 832.18 392.60 844.44 390.28 852.83 389.19 Z M 865.52 416.50 C 872.74 415.94 885.76 412.98 890.50 407.01 C 891.20 406.15 891.69 405.13 891.59 403.99 C 891.40 402.02 889.74 400.57 888.21 399.52 C 879.88 393.77 866.75 392.48 856.91 392.70 C 849.59 393.45 835.52 395.45 830.63 401.63 C 829.74 402.75 829.16 404.06 829.28 405.53 C 829.47 407.82 831.22 409.65 833.02 410.90 C 841.43 416.76 855.66 417.86 865.52 416.50 Z" fill="#0f0d10" fill-rule="nonzero" node-id="39" stroke="none" target-height="34.364014" target-width="72.11005" target-x="824.41" target-y="387.416"></path><path d="M 520.91 95.45 C 521.73 95.45 522.71 95.39 523.50 95.58 C 525.02 95.93 526.18 97.32 527.08 98.51 C 535.15 109.14 534.71 132.49 533.04 145.01 C 532.25 151.00 530.86 156.65 525.88 160.49 C 525.32 160.54 524.76 160.55 524.20 160.53 C 522.17 160.47 521.03 159.69 519.73 158.17 C 512.70 149.94 512.71 129.06 513.28 118.55 C 513.70 110.90 514.91 100.79 520.91 95.45 Z" fill="#0f0d10" fill-rule="nonzero" node-id="41" stroke="none" target-height="65.15307" target-width="22.458008" target-x="512.695" target-y="95.3926"></path><path d="M 406.98 99.97 C 407.73 99.94 408.50 99.89 409.25 99.99 C 412.06 100.36 414.56 103.18 416.19 105.28 C 424.75 116.27 433.24 140.37 431.31 154.28 C 430.80 158.00 429.64 160.14 426.65 162.39 C 426.08 162.44 425.33 162.54 424.76 162.46 C 422.47 162.10 420.30 159.82 418.88 158.14 C 409.58 147.09 401.83 122.12 403.32 107.74 C 403.67 104.34 404.32 102.18 406.98 99.97 Z" fill="#0f0d10" fill-rule="nonzero" node-id="43" stroke="none" target-height="62.658707" target-width="31.415009" target-x="401.826" target-y="99.88629"></path><path d="M 641.59 106.44 C 643.36 106.55 644.99 107.00 646.28 108.27 C 648.30 110.27 648.66 113.14 648.60 115.85 C 648.27 130.64 636.93 153.23 626.36 163.29 C 624.66 164.22 624.17 164.33 622.35 163.81 C 621.42 163.02 620.92 162.37 620.55 161.19 C 617.38 150.89 624.38 128.73 629.01 119.32 C 631.95 113.34 635.03 108.65 641.59 106.44 Z" fill="#0f0d10" fill-rule="nonzero" node-id="45" stroke="none" target-height="57.89099" target-width="31.278015" target-x="617.378" target-y="106.438"></path><path d="M 849.51 167.16 C 850.98 167.34 852.81 167.60 853.94 168.65 C 854.75 169.40 855.26 170.17 855.21 171.31 C 855.11 173.54 853.22 175.76 851.79 177.33 C 844.38 185.44 815.83 203.90 805.63 204.38 C 804.01 204.45 801.86 204.77 800.42 203.84 C 799.44 203.20 798.73 202.38 798.62 201.18 C 798.42 199.12 799.99 196.72 801.10 195.14 C 811.87 179.71 831.45 170.31 849.51 167.16 Z M 806.87 199.85 C 817.00 195.99 843.47 181.79 849.46 173.19 L 849.51 172.17 C 848.51 171.93 847.87 171.96 846.86 172.13 C 831.26 174.99 813.65 184.66 804.63 198.06 C 803.94 199.10 804.16 198.63 803.89 199.85 C 804.96 200.03 805.79 199.99 806.87 199.85 Z" fill="#0f0d10" fill-rule="nonzero" node-id="47" stroke="none" target-height="37.60202" target-width="56.836" target-x="798.422" target-y="167.165"></path><path d="M 141.32 460.20 C 148.83 459.29 161.33 460.40 167.71 464.69 C 169.46 465.87 171.47 467.83 171.69 470.06 C 171.85 471.75 171.38 473.13 170.27 474.39 C 166.00 479.21 155.58 480.08 149.52 480.58 C 141.28 480.93 130.17 480.48 122.72 476.51 C 120.63 475.40 118.29 473.57 117.81 471.10 C 117.55 469.72 118.03 468.52 118.81 467.41 C 122.70 461.85 135.17 460.83 141.32 460.20 Z M 151.98 475.69 C 156.46 475.21 163.95 474.30 167.28 471.16 C 167.42 470.52 167.66 470.25 167.26 469.66 C 165.01 466.35 156.41 465.19 152.63 464.78 C 148.11 464.30 143.34 464.24 138.81 464.65 C 134.00 465.43 126.70 466.32 123.09 469.92 C 122.95 470.55 122.70 470.83 123.15 471.39 C 125.72 474.59 139.41 476.02 143.58 476.12 C 146.42 476.19 149.17 476.13 151.98 475.69 Z" fill="#0f0d10" fill-rule="nonzero" node-id="49" stroke="none" target-height="21.639008" target-width="54.300003" target-x="117.552" target-y="459.28897"></path><path d="M 149.21 209.09 C 151.43 208.83 153.99 208.74 156.21 209.03 C 169.54 210.76 182.44 223.63 190.14 233.75 C 191.52 235.57 194.09 238.84 193.40 241.23 C 193.05 242.47 192.41 242.74 191.41 243.38 C 190.58 243.55 189.74 243.71 188.89 243.79 C 179.40 244.71 163.57 233.94 156.72 228.03 C 152.87 224.70 147.28 219.50 147.10 214.08 C 147.04 211.92 147.80 210.65 149.21 209.09 Z M 188.25 239.74 C 184.32 230.51 169.89 218.39 160.62 214.64 C 157.49 213.38 154.73 212.87 151.35 212.93 C 151.66 217.25 155.90 221.24 159.04 223.97 C 166.14 230.14 178.26 238.78 187.93 239.70 L 188.25 239.74 Z" fill="#0f0d10" fill-rule="nonzero" node-id="51" stroke="none" target-height="35.962997" target-width="47.048004" target-x="147.037" target-y="208.743"></path><path d="M 269.76 125.51 C 271.02 125.47 272.36 125.50 273.59 125.75 C 279.45 126.94 286.02 135.75 289.09 140.47 C 292.33 145.46 300.37 160.77 298.14 166.63 C 297.56 168.16 296.18 168.27 294.80 168.75 C 287.81 166.41 280.71 159.01 276.06 153.49 C 271.29 147.81 265.62 138.88 266.52 131.15 C 266.82 128.55 267.74 127.11 269.76 125.51 Z M 294.01 163.57 C 294.35 156.13 284.27 140.91 279.32 135.43 C 277.18 133.06 274.71 130.42 271.69 129.25 C 270.40 132.02 270.95 135.68 271.91 138.49 C 275.10 147.82 285.97 158.33 294.01 163.57 Z" fill="#0f0d10" fill-rule="nonzero" node-id="53" stroke="none" target-height="43.28701" target-width="34.748993" target-x="265.621" target-y="125.465996"></path><path d="M 732.09 116.24 C 733.32 116.09 734.55 116.02 735.79 116.10 C 737.75 116.23 739.70 117.17 740.93 118.73 C 742.88 121.17 742.58 125.06 742.16 127.94 C 740.80 137.16 734.36 146.97 726.98 152.48 C 725.24 152.85 723.62 153.12 721.94 152.34 C 720.04 151.46 718.93 149.72 718.29 147.79 C 716.18 141.38 718.13 131.98 721.23 126.11 C 723.70 121.42 726.94 117.82 732.09 116.24 Z M 725.88 147.81 C 731.97 142.28 736.92 133.46 738.28 125.31 C 737.80 123.57 737.49 121.52 736.14 120.25 C 735.04 119.88 734.37 119.84 733.21 119.95 C 727.58 123.26 724.45 128.71 722.87 134.94 C 721.97 138.52 720.88 144.33 722.77 147.61 C 723.51 148.03 724.16 148.55 725.07 148.25 C 725.36 148.15 725.61 147.96 725.88 147.81 Z" fill="#0f0d10" fill-rule="nonzero" node-id="55" stroke="none" target-height="37.10501" target-width="26.70697" target-x="716.177" target-y="116.01599"></path><path d="M 808.27 533.68 C 815.45 532.56 824.60 534.33 830.88 537.95 C 832.81 539.06 835.57 541.05 835.82 543.49 C 835.94 544.58 835.58 545.31 834.94 546.15 C 832.50 549.37 824.22 550.15 820.38 550.58 C 813.30 551.76 801.52 551.77 795.19 547.99 C 793.37 546.91 791.46 545.18 791.12 542.98 C 790.94 541.85 791.23 540.88 791.89 539.97 C 795.23 535.33 803.03 534.33 808.27 533.68 Z M 817.12 546.78 C 822.30 546.26 827.16 545.20 832.11 543.58 C 825.65 539.34 817.52 536.98 809.76 537.68 C 806.25 538.18 799.23 538.86 796.76 541.62 C 796.27 542.17 796.51 542.54 796.59 543.21 C 799.88 546.51 807.22 546.95 811.72 546.96 C 813.47 546.97 815.39 547.09 817.12 546.78 Z" fill="#0f0d10" fill-rule="nonzero" node-id="57" stroke="none" target-height="19.212036" target-width="44.998047" target-x="790.941" target-y="532.561"></path><path d="M 142.09 560.72 C 144.68 560.33 149.91 560.67 152.10 562.24 C 153.13 562.99 153.70 563.98 153.78 565.25 C 153.91 567.14 152.74 568.97 151.46 570.25 C 146.59 575.12 136.00 577.20 129.38 577.23 C 125.59 577.55 121.62 577.81 118.14 575.93 C 116.85 575.24 115.58 574.11 115.39 572.57 C 115.24 571.29 115.91 569.93 116.72 568.98 C 121.51 563.38 135.19 561.16 142.09 560.72 Z M 128.62 572.82 C 133.86 572.31 145.31 570.90 148.86 566.76 L 148.91 565.82 C 147.14 564.42 143.44 564.72 141.25 564.94 C 140.61 565.01 140.57 565.03 140.04 565.15 C 134.17 566.20 125.16 567.38 120.55 571.29 L 120.43 572.12 C 122.72 573.87 125.96 573.14 128.62 572.82 Z" fill="#0f0d10" fill-rule="nonzero" node-id="59" stroke="none" target-height="17.479004" target-width="38.664" target-x="115.241" target-y="560.328"></path><path d="M 889.81 485.64 C 894.60 485.34 899.15 485.26 903.53 487.56 C 905.70 488.70 908.08 490.75 908.61 493.27 C 908.93 494.83 908.66 496.30 907.71 497.58 C 905.24 500.88 900.24 501.69 896.42 502.36 C 892.07 503.04 886.17 503.03 882.15 501.10 C 880.13 500.13 878.22 498.44 877.63 496.21 C 877.21 494.60 877.54 492.94 878.45 491.56 C 880.88 487.87 885.74 486.50 889.81 485.64 Z M 895.22 498.37 C 898.27 497.75 901.14 497.55 903.29 495.06 C 903.50 493.80 903.60 493.51 902.75 492.43 C 900.46 489.50 894.51 489.51 891.16 489.58 C 888.63 490.24 884.53 490.98 882.96 493.28 C 882.20 494.41 882.53 494.92 882.95 496.05 C 886.51 499.05 890.86 498.62 895.22 498.37 Z" fill="#0f0d10" fill-rule="nonzero" node-id="61" stroke="none" target-height="17.776947" target-width="31.72699" target-x="877.206" target-y="485.26"></path><path d="M 151.75 780.01 C 153.97 776.24 156.50 770.89 161.12 769.64 C 162.60 769.23 164.16 769.39 165.40 770.38 C 166.88 771.57 167.47 773.66 167.51 775.49 C 167.61 779.95 165.03 784.57 162.79 788.31 C 161.11 790.29 159.00 792.28 156.60 793.34 C 154.97 794.06 152.98 794.43 151.33 793.59 C 150.14 792.99 149.50 791.95 149.10 790.73 C 147.93 787.14 150.18 783.13 151.75 780.01 Z M 159.44 785.07 C 160.57 783.32 161.35 781.52 162.09 779.57 C 162.68 778.00 163.63 775.92 162.89 774.31 L 161.98 774.01 C 158.96 774.89 156.96 781.28 155.27 783.84 L 154.83 784.49 C 154.15 786.00 153.44 787.29 153.49 788.98 L 154.16 789.35 C 156.23 788.49 158.04 786.81 159.44 785.07 Z" fill="#0f0d10" fill-rule="nonzero" node-id="63" stroke="none" target-height="25.195984" target-width="19.676987" target-x="147.932" target-y="769.231"></path><path d="M 151.75 780.01 C 152.81 781.39 154.34 782.84 154.83 784.49 C 154.15 786.00 153.44 787.29 153.49 788.98 L 154.16 789.35 C 156.23 788.49 158.04 786.81 159.44 785.07 C 160.25 786.76 160.92 787.17 162.49 788.12 C 162.59 788.18 162.69 788.25 162.79 788.31 C 161.11 790.29 159.00 792.28 156.60 793.34 C 154.97 794.06 152.98 794.43 151.33 793.59 C 150.14 792.99 149.50 791.95 149.10 790.73 C 147.93 787.14 150.18 783.13 151.75 780.01 Z" fill="#0f0d10" fill-rule="nonzero" node-id="65" stroke="none" target-height="14.419983" target-width="14.854996" target-x="147.932" target-y="780.007"></path><path d="M 207.21 500.63 C 209.78 500.43 212.87 500.11 215.33 500.96 C 217.57 501.73 220.49 503.31 221.32 505.72 C 221.74 506.96 221.72 508.05 221.03 509.20 C 219.48 511.78 216.19 512.45 213.50 513.19 C 210.98 513.58 207.23 514.13 204.77 513.38 C 202.76 512.76 200.30 511.52 199.41 509.48 C 198.87 508.25 198.72 507.02 199.30 505.76 C 200.66 502.78 204.32 501.48 207.21 500.63 Z" fill="#0f0d10" fill-rule="nonzero" node-id="67" stroke="none" target-height="14.020966" target-width="23.024002" target-x="198.72" target-y="500.11203"></path><path d="M 222.95 740.89 C 223.79 740.96 224.62 741.04 225.42 741.34 C 226.96 741.90 228.14 743.13 228.77 744.63 C 230.13 747.86 229.35 751.98 228.05 755.11 C 226.42 759.04 224.23 761.36 220.28 762.92 C 219.55 762.78 218.67 762.65 217.99 762.35 C 215.23 761.09 214.59 758.19 213.71 755.58 C 215.44 750.24 218.04 743.96 222.95 740.89 Z" fill="#0f0d10" fill-rule="nonzero" node-id="69" stroke="none" target-height="22.031921" target-width="16.421005" target-x="213.707" target-y="740.8901"></path><path d="M 241.09 256.50 C 243.39 256.39 245.22 256.42 247.36 257.34 C 251.47 259.12 253.25 262.57 254.88 266.47 C 254.04 268.61 253.41 270.31 251.79 272.01 C 250.53 272.13 249.25 272.25 247.98 272.12 C 244.64 271.77 241.17 269.13 239.25 266.48 C 238.06 264.82 237.36 262.84 237.74 260.79 C 238.15 258.58 239.32 257.64 241.09 256.50 Z" fill="#0f0d10" fill-rule="nonzero" node-id="71" stroke="none" target-height="15.858002" target-width="17.518982" target-x="237.36302" target-y="256.393"></path><path d="M 296.52 228.02 C 296.14 224.98 294.86 218.23 296.84 215.77 C 297.60 214.84 298.76 214.46 299.90 214.26 C 304.98 213.39 317.75 214.45 323.95 214.46 L 380.45 214.05 L 563.17 212.46 L 671.73 211.38 C 685.50 211.30 699.34 210.18 713.10 210.57 C 714.72 210.62 716.37 210.69 717.75 211.63 C 718.80 215.21 717.74 220.26 717.31 223.94 C 721.26 223.26 726.30 222.57 730.22 223.54 C 732.00 226.09 731.92 232.68 732.16 235.86 C 736.60 294.64 738.35 353.64 741.39 412.50 L 745.22 484.45 C 745.89 497.06 747.25 509.96 747.01 522.58 C 756.07 532.06 764.43 542.66 772.98 552.63 L 828.41 617.30 C 833.66 623.40 838.57 629.85 843.92 635.84 C 852.64 627.97 876.60 608.17 886.56 605.01 C 897.38 613.66 908.38 625.75 918.35 635.63 C 927.48 644.68 937.34 653.42 946.01 662.88 C 947.66 663.17 962.65 659.55 965.78 659.02 C 968.19 658.60 970.61 658.25 973.05 657.96 C 975.48 657.67 977.92 657.45 980.36 657.30 C 982.80 657.15 985.25 657.06 987.70 657.05 C 990.15 657.03 992.60 657.08 995.04 657.20 C 997.49 657.32 999.93 657.50 1002.37 657.75 C 1004.80 658.01 1007.23 658.32 1009.65 658.71 C 1012.07 659.10 1014.48 659.55 1016.87 660.07 C 1019.26 660.59 1021.64 661.17 1024.00 661.82 L 1024.00 922.42 C 1015.69 924.35 1006.19 924.49 997.68 924.54 C 972.66 924.68 947.82 921.39 922.85 921.04 C 896.32 920.67 870.76 924.36 844.64 928.39 C 819.88 889.38 810.76 859.46 815.04 813.16 C 815.36 809.67 819.31 791.18 819.06 790.07 C 817.85 790.57 817.47 790.82 816.15 790.31 C 809.73 787.81 788.36 768.48 780.94 762.63 C 772.44 755.95 763.14 749.76 753.52 744.83 L 754.10 791.42 C 754.14 798.09 754.78 805.21 754.08 811.80 C 750.59 813.15 745.66 811.99 741.87 812.34 C 745.23 823.24 748.64 834.23 752.68 844.89 C 754.57 850.21 763.79 871.56 761.98 875.82 C 761.44 877.09 760.73 877.78 759.46 878.29 C 753.93 878.36 748.96 873.00 745.25 869.38 C 741.08 865.30 736.63 861.43 732.52 857.34 C 721.88 847.85 710.93 838.53 699.98 829.42 C 689.80 828.39 678.80 829.45 668.53 829.48 L 594.85 830.19 C 587.17 830.32 579.49 829.97 571.81 829.97 L 510.00 830.08 L 395.24 831.05 L 323.80 831.32 C 313.14 831.33 301.97 832.16 291.38 831.27 L 291.64 830.90 L 291.00 831.14 C 289.71 821.58 290.36 806.70 290.18 796.74 L 288.85 723.09 C 286.78 633.74 285.23 544.37 284.20 455.00 L 281.53 295.39 L 280.54 249.61 C 280.44 242.79 279.86 235.55 280.55 228.76 C 284.33 226.86 292.22 227.94 296.52 228.02 Z M 862.42 627.16 C 855.10 632.48 847.38 639.18 841.33 645.89 C 846.63 651.44 867.14 669.63 868.04 675.28 C 867.35 676.20 867.34 676.24 866.23 676.54 C 862.28 675.48 842.23 653.04 838.33 648.49 C 832.18 654.82 824.27 661.55 819.48 668.96 C 824.68 675.04 846.69 694.61 848.35 700.21 L 847.79 701.16 C 845.52 701.37 844.05 700.25 842.34 698.84 C 838.93 696.02 835.88 692.49 832.80 689.31 C 827.34 683.64 821.81 678.03 816.21 672.51 C 809.43 680.02 803.20 688.16 796.93 696.10 C 802.16 701.25 827.40 721.05 828.05 725.26 C 827.62 726.34 827.83 726.48 826.71 726.97 C 822.09 726.25 799.30 704.61 794.60 699.51 C 788.49 706.31 782.60 716.81 777.98 724.78 C 783.18 728.12 810.82 748.06 812.91 751.83 C 813.02 753.03 813.08 753.35 812.60 754.44 C 810.97 754.87 809.98 754.44 808.53 753.59 C 804.31 751.10 800.59 747.56 796.75 744.52 C 789.98 739.15 782.76 733.45 775.47 728.84 C 772.03 734.18 769.50 740.50 765.57 745.42 C 785.32 756.43 800.38 774.76 819.46 786.81 L 820.53 786.55 C 821.68 784.88 823.42 777.55 824.54 774.74 C 828.05 765.92 831.90 757.37 836.61 749.12 C 859.05 709.83 896.75 676.89 940.85 664.78 C 928.71 652.59 916.43 640.56 903.99 628.68 C 897.83 622.72 891.90 616.51 885.56 610.73 C 878.88 614.94 872.46 619.47 866.01 624.02 C 873.05 631.19 910.12 664.84 912.53 670.23 L 912.36 671.29 C 911.34 671.92 910.81 672.39 909.53 672.17 C 907.59 671.85 867.57 632.31 862.42 627.16 Z M 686.76 808.09 C 688.00 810.29 689.22 812.51 690.93 814.39 C 695.49 819.40 701.14 823.70 706.29 828.11 C 716.12 836.51 726.10 844.76 735.82 853.29 L 737.56 854.24 C 740.28 854.23 744.78 850.23 747.39 848.97 L 747.78 848.78 L 747.79 848.01 C 744.16 834.69 739.75 821.42 735.32 808.35 C 733.39 802.64 731.84 796.23 728.85 790.99 C 727.53 788.67 725.58 786.88 723.29 785.54 C 718.10 782.51 712.36 782.03 706.65 783.68 C 699.68 785.69 693.29 790.92 689.83 797.32 C 688.01 800.69 687.06 804.30 686.76 808.09 Z M 300.96 219.51 L 307.50 599.62 L 309.94 729.75 L 310.81 781.40 C 311.00 789.65 310.81 798.12 311.56 806.33 L 535.53 805.35 C 554.76 805.37 574.02 806.11 593.25 806.32 C 612.34 806.54 631.37 806.21 650.45 805.98 C 659.54 805.87 668.53 806.08 677.62 805.70 C 651.66 768.33 624.46 731.83 599.45 693.79 C 567.51 686.32 535.80 678.57 505.03 667.05 C 495.03 663.30 484.45 659.27 475.31 653.70 C 466.47 648.72 452.09 641.18 448.73 630.79 C 447.71 627.64 448.93 623.07 450.50 620.28 C 454.56 613.07 463.33 610.00 470.91 608.09 C 487.86 603.79 506.94 603.96 524.26 605.48 C 528.28 605.83 535.64 607.87 539.01 607.66 C 536.53 603.34 533.22 599.37 530.44 595.21 C 520.63 580.50 510.39 566.24 500.18 551.82 C 482.42 564.88 444.85 588.15 422.70 584.63 C 417.92 583.87 413.02 581.63 410.20 577.54 C 408.38 574.90 407.93 571.80 408.57 568.69 C 411.65 553.81 435.74 536.01 446.75 526.26 C 454.04 519.80 461.37 512.25 469.54 506.96 L 437.35 459.83 C 431.38 451.09 425.74 442.00 419.34 433.57 L 418.71 433.53 C 413.46 433.11 409.98 431.09 406.60 427.11 C 400.43 419.83 400.67 413.39 396.70 405.63 C 394.45 401.22 391.08 397.10 388.24 393.04 C 380.94 382.60 371.96 368.76 373.02 355.38 C 373.46 349.78 376.02 344.14 380.39 340.53 C 384.80 336.89 391.17 335.21 396.83 335.86 C 414.15 337.84 430.19 360.73 442.12 371.79 C 448.08 377.32 453.72 379.26 459.00 386.26 C 463.25 391.90 463.38 398.12 466.67 403.63 C 472.98 414.17 480.41 424.19 487.41 434.29 C 495.13 445.44 502.64 456.81 510.70 467.72 C 526.59 454.88 543.00 442.61 559.29 430.28 C 570.84 421.54 582.58 411.91 595.33 405.00 C 601.86 401.45 609.98 397.57 617.64 398.22 C 628.40 399.13 639.31 407.06 647.42 413.68 C 652.58 417.90 657.16 422.87 661.80 427.64 C 669.89 435.89 677.79 444.31 685.52 452.89 C 698.22 466.90 711.14 480.63 723.00 495.37 C 722.85 487.40 722.29 479.45 722.08 471.48 L 715.70 287.15 C 714.93 263.18 712.66 238.96 713.12 214.99 C 707.14 214.98 700.53 214.46 694.63 215.24 C 688.61 215.66 682.59 215.40 676.55 215.54 C 651.47 216.13 626.38 215.59 601.33 216.19 C 501.21 218.09 401.09 219.20 300.96 219.51 Z M 513.53 471.48 C 524.00 486.82 534.64 502.05 545.46 517.15 C 560.71 505.97 577.67 494.96 590.87 481.36 C 588.59 475.81 581.12 460.73 581.20 455.34 L 581.85 454.26 C 583.12 454.15 583.23 454.29 584.21 455.14 C 587.28 457.81 621.16 538.30 623.80 547.10 C 626.67 556.69 628.79 567.00 628.31 577.06 C 627.86 586.54 625.36 596.61 618.06 603.19 C 615.38 605.61 612.23 607.44 608.94 608.89 L 654.74 674.09 C 663.38 686.24 672.60 698.33 680.60 710.88 C 681.35 711.88 682.07 712.93 682.89 713.86 C 703.02 717.63 743.05 733.43 761.39 743.47 C 763.26 737.67 767.55 731.74 770.69 726.52 C 790.03 694.36 813.43 665.88 839.89 639.33 C 826.63 622.51 812.44 606.38 798.57 590.06 C 774.64 561.54 750.33 533.36 725.64 505.50 C 710.82 488.35 695.79 471.39 680.53 454.63 C 670.04 443.05 659.16 430.73 647.44 420.38 C 639.80 413.63 627.34 403.61 616.74 402.58 C 615.61 402.47 614.46 402.50 613.32 402.54 C 588.53 410.68 553.75 440.17 532.50 456.90 C 526.32 461.76 519.33 466.23 513.53 471.48 Z M 565.51 546.72 L 566.47 547.46 C 572.40 546.34 601.58 524.94 607.59 520.14 C 605.58 513.34 596.49 491.83 592.74 486.40 C 578.50 499.00 563.57 510.32 547.88 521.06 C 553.79 529.55 560.15 537.87 565.51 546.72 Z M 609.42 524.58 C 605.57 528.90 575.37 548.51 569.34 551.73 C 573.70 559.02 579.08 565.69 583.78 572.77 L 586.66 576.53 C 598.35 569.98 608.69 560.80 620.28 554.06 C 618.29 547.26 613.57 529.89 609.42 524.58 Z M 680.85 810.94 L 429.60 810.63 L 353.72 811.06 C 338.28 811.08 322.07 809.92 306.72 811.81 C 307.17 801.03 306.47 790.11 306.18 779.32 L 305.38 735.18 L 301.70 544.06 L 298.37 326.53 L 297.02 258.25 C 296.79 249.83 297.07 241.32 296.49 232.93 C 292.49 232.57 288.55 232.44 284.54 232.46 C 285.06 278.14 287.01 323.83 287.65 369.50 L 289.85 545.44 C 290.07 558.42 289.99 571.41 290.34 584.39 C 292.02 644.94 293.21 705.50 293.92 766.08 C 293.94 777.12 294.12 788.17 294.46 799.20 C 294.74 808.45 295.33 817.74 294.88 826.99 C 310.10 827.36 325.30 826.65 340.52 826.67 L 519.95 825.26 L 644.54 825.08 C 661.05 825.01 677.77 825.52 694.25 824.80 L 694.61 824.56 C 690.13 820.75 684.68 816.83 681.45 811.86 C 681.32 811.67 681.19 811.48 681.07 811.29 C 680.99 811.17 680.92 811.06 680.85 810.94 Z M 403.47 392.03 C 410.57 382.27 420.19 376.06 432.18 374.17 C 433.56 373.95 434.94 373.77 436.33 373.61 C 429.82 367.23 424.26 358.94 416.88 353.59 C 414.83 353.59 412.75 353.54 410.70 353.60 C 402.06 354.98 395.02 358.32 389.72 365.53 C 387.16 369.02 385.70 372.70 384.62 376.87 C 387.25 383.94 394.35 394.55 399.64 399.98 C 400.88 397.34 402.04 394.58 403.47 392.03 Z M 402.75 406.81 C 404.51 412.57 408.22 424.90 414.04 428.05 C 415.14 428.65 415.42 428.52 416.56 428.26 C 418.35 426.41 417.09 419.91 418.07 416.84 C 422.64 407.85 429.88 401.07 439.56 397.83 C 445.97 395.68 452.26 396.31 458.86 396.83 C 455.54 390.09 450.92 382.64 443.47 379.96 C 440.17 378.78 436.24 378.58 432.80 379.15 C 423.37 380.72 414.54 385.41 408.96 393.35 C 406.05 397.48 404.43 402.08 402.75 406.81 Z M 620.96 559.46 C 610.34 566.44 599.81 573.55 589.38 580.80 L 600.85 596.94 C 602.34 599.45 603.90 601.93 605.24 604.53 C 611.51 602.17 617.58 598.02 620.33 591.68 C 623.84 583.60 624.92 569.07 621.84 560.73 C 621.58 560.01 621.58 560.17 620.96 559.46 Z M 688.90 790.40 C 694.11 783.91 699.79 779.53 708.35 778.53 C 713.90 777.88 718.46 778.91 723.53 781.07 C 655.62 685.56 588.54 589.48 522.29 492.81 C 507.25 470.61 491.45 448.92 476.28 426.79 C 470.99 419.07 463.64 410.22 459.53 402.11 C 455.11 401.49 450.74 401.03 446.27 401.28 C 438.34 403.11 430.09 407.25 425.52 414.26 C 422.98 418.17 422.57 421.58 421.77 426.00 C 424.75 433.20 429.85 439.78 434.22 446.21 C 441.42 456.75 448.68 467.23 456.03 477.66 C 468.82 495.91 481.03 514.58 493.79 532.87 L 639.84 743.71 C 654.05 764.33 669.28 784.22 683.16 805.09 C 683.82 799.30 685.62 795.19 688.90 790.40 Z M 729.87 779.24 C 730.02 765.43 730.98 748.25 729.67 734.80 L 686.27 719.32 C 697.43 736.10 709.52 752.48 721.62 768.59 C 724.02 771.79 726.81 776.77 729.87 779.24 Z M 734.79 737.37 C 734.47 748.83 734.68 760.31 734.71 771.77 C 734.72 778.28 733.95 785.99 735.27 792.35 C 736.32 797.40 739.04 802.11 740.49 807.06 C 743.35 807.37 746.24 807.59 749.06 808.15 C 749.73 800.66 749.12 792.75 749.04 785.21 C 748.76 771.01 748.65 756.82 748.71 742.62 C 744.11 740.77 739.54 738.81 734.79 737.37 Z M 558.13 678.60 L 595.29 687.98 C 585.35 674.17 575.63 660.21 566.12 646.10 C 558.86 635.27 550.50 621.80 542.05 612.08 C 536.73 612.03 531.50 610.90 526.23 610.31 C 517.13 609.29 508.25 608.87 499.12 609.23 C 486.16 610.25 464.19 611.11 455.11 621.70 C 453.61 623.44 452.73 625.54 452.98 627.87 C 453.57 633.16 459.13 637.36 463.12 640.31 C 483.74 655.57 513.45 665.25 537.78 672.82 C 544.29 674.84 551.45 677.41 558.13 678.60 Z M 471.92 510.91 C 465.10 516.19 458.70 522.18 452.19 527.85 C 442.72 536.11 414.57 558.70 413.15 571.35 C 412.96 573.04 413.84 574.46 414.95 575.64 C 418.13 579.02 423.54 580.45 428.05 580.37 C 430.97 580.33 433.83 579.64 436.65 578.92 C 459.06 573.22 478.36 560.42 497.70 548.28 C 494.13 542.41 475.34 513.05 471.92 510.91 Z M 742.13 516.55 C 742.09 502.56 740.85 488.52 740.07 474.55 L 736.87 411.42 C 734.51 353.85 731.65 296.31 728.27 238.79 C 728.10 236.31 728.27 229.74 726.74 227.93 L 725.64 227.79 C 722.93 227.93 720.23 228.02 717.52 228.06 C 717.60 238.86 718.41 249.68 718.86 260.47 C 719.69 282.15 720.65 303.83 721.73 325.51 C 723.40 368.46 724.84 411.43 726.06 454.40 C 726.50 469.63 727.75 484.91 727.97 500.13 C 731.34 504.79 735.49 508.71 738.98 513.24 L 742.13 516.55 Z" fill="#0f0d10" fill-rule="nonzero" node-id="73" stroke="none" target-height="718.20496" target-width="744.13696" target-x="279.863" target-y="210.181"></path><path d="M 946.01 662.88 C 947.66 663.17 962.65 659.55 965.78 659.02 C 968.19 658.60 970.61 658.25 973.05 657.96 C 975.48 657.67 977.92 657.45 980.36 657.30 C 982.80 657.15 985.25 657.06 987.70 657.05 C 990.15 657.03 992.60 657.08 995.04 657.20 C 997.49 657.32 999.93 657.50 1002.37 657.75 C 1004.80 658.01 1007.23 658.32 1009.65 658.71 C 1012.07 659.10 1014.48 659.55 1016.87 660.07 C 1019.26 660.59 1021.64 661.17 1024.00 661.82 L 1024.00 922.42 C 1015.69 924.35 1006.19 924.49 997.68 924.54 C 972.66 924.68 947.82 921.39 922.85 921.04 C 896.32 920.67 870.76 924.36 844.64 928.39 C 819.88 889.38 810.76 859.46 815.04 813.16 C 815.36 809.67 819.31 791.18 819.06 790.07 C 818.76 788.67 818.90 788.12 819.46 786.81 L 820.53 786.55 C 821.68 784.88 823.42 777.55 824.54 774.74 C 828.05 765.92 831.90 757.37 836.61 749.12 C 859.05 709.83 896.75 676.89 940.85 664.78 C 940.90 664.78 940.96 664.80 941.01 664.77 C 942.55 663.99 943.76 663.64 945.39 663.09 L 946.01 662.88 Z" fill="#0f0d10" fill-rule="nonzero" node-id="75" stroke="none" target-height="271.35535" target-width="213.24103" target-x="810.759" target-y="657.03064"></path><path d="M 752.68 844.89 C 754.57 850.21 763.79 871.56 761.98 875.82 C 761.44 877.09 760.73 877.78 759.46 878.29 C 753.93 878.36 748.96 873.00 745.25 869.38 C 741.08 865.30 736.63 861.43 732.52 857.34 C 733.08 855.66 734.32 854.20 735.82 853.29 L 737.56 854.24 C 740.28 854.23 744.78 850.23 747.39 848.97 L 747.78 848.78 L 747.79 848.01 C 749.34 846.68 750.86 845.79 752.68 844.89 Z" fill="#0f0d10" fill-rule="nonzero" node-id="77" stroke="none" target-height="33.465027" target-width="31.273987" target-x="732.518" target-y="844.891"></path><path d="M 431.62 420.32 L 433.46 420.50 C 438.85 424.23 459.51 457.36 464.91 465.18 L 496.82 510.89 L 535.92 566.71 C 561.03 603.61 586.42 640.32 612.07 676.84 L 651.24 732.59 C 657.76 741.69 664.34 750.73 670.61 760.00 C 672.67 763.04 675.06 765.92 676.70 769.23 C 677.56 770.99 677.71 771.66 677.07 773.52 C 676.22 773.19 675.52 772.78 674.85 772.15 C 670.42 767.97 662.37 754.57 658.40 748.90 L 614.90 686.75 C 555.38 602.05 496.29 517.04 437.63 431.73 C 435.54 428.63 431.81 424.09 431.62 420.32 Z" fill="#0f0d10" fill-rule="nonzero" node-id="79" stroke="none" target-height="353.19598" target-width="246.08301" target-x="431.622" target-y="420.32404"></path><path d="M 455.46 417.86 C 456.34 417.93 457.53 417.84 458.26 418.37 C 462.24 421.24 477.74 446.50 481.88 452.47 C 507.61 488.90 533.07 525.51 558.26 562.31 L 693.14 752.96 C 695.13 755.82 701.22 763.42 701.72 766.62 C 700.55 766.79 699.41 767.30 698.40 766.52 C 696.68 765.19 691.68 756.74 689.83 754.14 L 646.71 692.83 L 527.09 522.88 L 482.77 459.56 C 473.99 446.96 464.38 434.43 456.64 421.17 C 455.97 420.01 455.59 419.20 455.46 417.86 Z" fill="#0f0d10" fill-rule="nonzero" node-id="81" stroke="none" target-height="349.45898" target-width="246.258" target-x="455.461" target-y="417.839"></path></svg>